<svg width="236" height="76" viewBox="0 0 236 76" fill="none" xmlns="http://www.w3.org/2000/svg">
<path d="M65.4532 61.5029V56.6832H66.1938V61.5029H65.4532ZM65.8298 55.8799C65.6854 55.8799 65.561 55.8307 65.4564 55.7324C65.3539 55.6341 65.3026 55.5159 65.3026 55.3778C65.3026 55.2398 65.3539 55.1216 65.4564 55.0233C65.561 54.9249 65.6854 54.8758 65.8298 54.8758C65.9741 54.8758 66.0975 54.9249 66.2 55.0233C66.3046 55.1216 66.3569 55.2398 66.3569 55.3778C66.3569 55.5159 66.3046 55.6341 66.2 55.7324C66.0975 55.8307 65.9741 55.8799 65.8298 55.8799ZM68.2906 58.6035V61.5029H67.5501V56.6832H68.2655V57.4363H68.3283C68.4413 57.1915 68.6128 56.9949 68.8429 56.8463C69.073 56.6957 69.3701 56.6204 69.7341 56.6204C70.0604 56.6204 70.3459 56.6874 70.5907 56.8212C70.8354 56.953 71.0258 57.1539 71.1618 57.4237C71.2978 57.6915 71.3657 58.0304 71.3657 58.4404V61.5029H70.6252V58.4906C70.6252 58.112 70.5269 57.817 70.3302 57.6057C70.1336 57.3923 69.8638 57.2856 69.5207 57.2856C69.2843 57.2856 69.073 57.3369 68.8868 57.4394C68.7027 57.5419 68.5574 57.6915 68.4507 57.8881C68.344 58.0848 68.2906 58.3232 68.2906 58.6035ZM76.6224 61.6159C76.317 61.6159 76.0398 61.5584 75.7909 61.4433C75.542 61.3262 75.3443 61.1578 75.1978 60.9381C75.0514 60.7164 74.9782 60.4486 74.9782 60.1348C74.9782 59.8587 75.0326 59.6349 75.1414 59.4633C75.2501 59.2897 75.3955 59.1537 75.5775 59.0554C75.7595 58.9571 75.9603 58.8839 76.18 58.8358C76.4017 58.7855 76.6245 58.7458 76.8484 58.7165C77.1412 58.6789 77.3787 58.6506 77.5607 58.6318C77.7447 58.6109 77.8786 58.5764 77.9623 58.5282C78.0481 58.4801 78.091 58.3965 78.091 58.2772V58.2521C78.091 57.9425 78.0062 57.7019 77.8368 57.5304C77.6694 57.3589 77.4153 57.2731 77.0743 57.2731C76.7208 57.2731 76.4436 57.3505 76.2428 57.5053C76.0419 57.6601 75.9007 57.8254 75.8191 58.0011L75.1163 57.7501C75.2418 57.4572 75.4091 57.2292 75.6183 57.066C75.8296 56.9007 76.0597 56.7857 76.3086 56.7208C76.5597 56.6539 76.8065 56.6204 77.0492 56.6204C77.204 56.6204 77.3818 56.6392 77.5826 56.6769C77.7855 56.7125 77.9811 56.7867 78.1694 56.8997C78.3598 57.0127 78.5177 57.1831 78.6432 57.4112C78.7687 57.6392 78.8315 57.9446 78.8315 58.3274V61.5029H78.091V60.8503H78.0533C78.0031 60.9549 77.9194 61.0668 77.8023 61.186C77.6851 61.3052 77.5293 61.4067 77.3347 61.4904C77.1402 61.5741 76.9028 61.6159 76.6224 61.6159ZM76.7354 60.9507C77.0283 60.9507 77.2751 60.8931 77.4759 60.7781C77.6788 60.663 77.8316 60.5145 77.9341 60.3325C78.0387 60.1505 78.091 59.9591 78.091 59.7583V59.0805C78.0596 59.1182 77.9905 59.1527 77.8839 59.1841C77.7793 59.2133 77.6579 59.2395 77.5199 59.2625C77.3839 59.2834 77.2511 59.3022 77.1214 59.319C76.9937 59.3336 76.8902 59.3462 76.8107 59.3566C76.6183 59.3817 76.4383 59.4225 76.271 59.479C76.1057 59.5334 75.9719 59.616 75.8693 59.7269C75.7689 59.8357 75.7187 59.9842 75.7187 60.1725C75.7187 60.4298 75.8139 60.6243 76.0043 60.7561C76.1967 60.8858 76.4404 60.9507 76.7354 60.9507ZM83.5971 57.7626L82.9319 57.9509C82.89 57.84 82.8283 57.7323 82.7468 57.6277C82.6673 57.521 82.5585 57.4331 82.4204 57.3641C82.2823 57.2951 82.1056 57.2605 81.8901 57.2605C81.5952 57.2605 81.3494 57.3285 81.1527 57.4645C80.9582 57.5984 80.8609 57.7689 80.8609 57.976C80.8609 58.1601 80.9278 58.3055 81.0617 58.4121C81.1956 58.5188 81.4048 58.6077 81.6893 58.6789L82.4047 58.8546C82.8357 58.9592 83.1568 59.1192 83.368 59.3347C83.5793 59.548 83.685 59.8231 83.685 60.1599C83.685 60.4361 83.6055 60.6829 83.4465 60.9005C83.2896 61.118 83.0699 61.2896 82.7875 61.4151C82.5051 61.5406 82.1767 61.6033 81.8023 61.6033C81.3107 61.6033 80.9038 61.4967 80.5816 61.2833C80.2595 61.0699 80.0555 60.7582 79.9697 60.3482L80.6726 60.1725C80.7396 60.4319 80.8661 60.6264 81.0523 60.7561C81.2406 60.8858 81.4864 60.9507 81.7897 60.9507C82.1349 60.9507 82.4089 60.8774 82.6118 60.731C82.8168 60.5825 82.9193 60.4047 82.9193 60.1976C82.9193 60.0302 82.8608 59.8901 82.7436 59.7771C82.6265 59.6621 82.4466 59.5763 82.2039 59.5198L81.4006 59.3315C80.9592 59.2269 80.635 59.0648 80.4279 58.8452C80.2229 58.6234 80.1204 58.3462 80.1204 58.0136C80.1204 57.7417 80.1967 57.5011 80.3494 57.2919C80.5042 57.0827 80.7145 56.9185 80.9801 56.7993C81.2479 56.68 81.5512 56.6204 81.8901 56.6204C82.3671 56.6204 82.7415 56.725 83.0135 56.9342C83.2875 57.1434 83.4821 57.4195 83.5971 57.7626ZM88.2137 57.7626L87.5485 57.9509C87.5066 57.84 87.4449 57.7323 87.3633 57.6277C87.2838 57.521 87.1751 57.4331 87.037 57.3641C86.8989 57.2951 86.7222 57.2605 86.5067 57.2605C86.2117 57.2605 85.9659 57.3285 85.7693 57.4645C85.5747 57.5984 85.4775 57.7689 85.4775 57.976C85.4775 58.1601 85.5444 58.3055 85.6783 58.4121C85.8122 58.5188 86.0214 58.6077 86.3059 58.6789L87.0213 58.8546C87.4522 58.9592 87.7733 59.1192 87.9846 59.3347C88.1959 59.548 88.3015 59.8231 88.3015 60.1599C88.3015 60.4361 88.2221 60.6829 88.0631 60.9005C87.9062 61.118 87.6865 61.2896 87.4041 61.4151C87.1217 61.5406 86.7933 61.6033 86.4188 61.6033C85.9272 61.6033 85.5204 61.4967 85.1982 61.2833C84.876 61.0699 84.6721 60.7582 84.5863 60.3482L85.2892 60.1725C85.3561 60.4319 85.4827 60.6264 85.6689 60.7561C85.8572 60.8858 86.103 60.9507 86.4063 60.9507C86.7514 60.9507 87.0255 60.8774 87.2284 60.731C87.4334 60.5825 87.5359 60.4047 87.5359 60.1976C87.5359 60.0302 87.4773 59.8901 87.3602 59.7771C87.243 59.6621 87.0631 59.5763 86.8205 59.5198L86.0172 59.3315C85.5758 59.2269 85.2515 59.0648 85.0444 58.8452C84.8394 58.6234 84.7369 58.3462 84.7369 58.0136C84.7369 57.7417 84.8133 57.5011 84.966 57.2919C85.1208 57.0827 85.331 56.9185 85.5967 56.7993C85.8645 56.68 86.1678 56.6204 86.5067 56.6204C86.9836 56.6204 87.3581 56.725 87.63 56.9342C87.9041 57.1434 88.0986 57.4195 88.2137 57.7626ZM91.3743 61.6033C90.9392 61.6033 90.5574 61.4998 90.229 61.2927C89.9026 61.0856 89.6474 60.7959 89.4633 60.4235C89.2813 60.0511 89.1903 59.616 89.1903 59.1182C89.1903 58.6161 89.2813 58.1778 89.4633 57.8034C89.6474 57.4289 89.9026 57.1382 90.229 56.9311C90.5574 56.724 90.9392 56.6204 91.3743 56.6204C91.8094 56.6204 92.1901 56.724 92.5165 56.9311C92.8449 57.1382 93.1001 57.4289 93.2821 57.8034C93.4662 58.1778 93.5582 58.6161 93.5582 59.1182C93.5582 59.616 93.4662 60.0511 93.2821 60.4235C93.1001 60.7959 92.8449 61.0856 92.5165 61.2927C92.1901 61.4998 91.8094 61.6033 91.3743 61.6033ZM91.3743 60.9381C91.7048 60.9381 91.9768 60.8534 92.1901 60.6839C92.4035 60.5145 92.5614 60.2917 92.6639 60.0156C92.7665 59.7395 92.8177 59.4403 92.8177 59.1182C92.8177 58.796 92.7665 58.4958 92.6639 58.2176C92.5614 57.9394 92.4035 57.7145 92.1901 57.543C91.9768 57.3714 91.7048 57.2856 91.3743 57.2856C91.0438 57.2856 90.7718 57.3714 90.5584 57.543C90.3451 57.7145 90.1871 57.9394 90.0846 58.2176C89.9821 58.4958 89.9309 58.796 89.9309 59.1182C89.9309 59.4403 89.9821 59.7395 90.0846 60.0156C90.1871 60.2917 90.3451 60.5145 90.5584 60.6839C90.7718 60.8534 91.0438 60.9381 91.3743 60.9381ZM96.6467 61.6033C96.1948 61.6033 95.8057 61.4967 95.4794 61.2833C95.1531 61.0699 94.902 60.776 94.7263 60.4015C94.5506 60.0271 94.4627 59.5993 94.4627 59.1182C94.4627 58.6287 94.5527 58.1967 94.7326 57.8222C94.9146 57.4457 95.1677 57.1518 95.4919 56.9405C95.8183 56.7271 96.199 56.6204 96.6341 56.6204C96.973 56.6204 97.2784 56.6832 97.5504 56.8087C97.8223 56.9342 98.0451 57.1099 98.2187 57.3359C98.3924 57.5618 98.5001 57.8254 98.5419 58.1266H97.8014C97.7449 57.9069 97.6194 57.7124 97.4249 57.543C97.2324 57.3714 96.973 57.2856 96.6467 57.2856C96.358 57.2856 96.1049 57.361 95.8873 57.5116C95.6718 57.6601 95.5035 57.8703 95.3821 58.1423C95.2629 58.4121 95.2033 58.7291 95.2033 59.0931C95.2033 59.4654 95.2618 59.7897 95.379 60.0658C95.4982 60.3419 95.6656 60.5563 95.881 60.7091C96.0986 60.8618 96.3538 60.9381 96.6467 60.9381C96.8391 60.9381 97.0138 60.9046 97.1707 60.8377C97.3276 60.7708 97.4604 60.6745 97.5692 60.549C97.678 60.4235 97.7554 60.2729 97.8014 60.0972H98.5419C98.5001 60.3817 98.3966 60.6379 98.2313 60.8659C98.0681 61.0919 97.8516 61.2718 97.5818 61.4057C97.314 61.5374 97.0023 61.6033 96.6467 61.6033ZM99.6245 61.5029V56.6832H100.365V61.5029H99.6245ZM100.001 55.8799C99.8567 55.8799 99.7322 55.8307 99.6276 55.7324C99.5251 55.6341 99.4739 55.5159 99.4739 55.3778C99.4739 55.2398 99.5251 55.1216 99.6276 55.0233C99.7322 54.9249 99.8567 54.8758 100.001 54.8758C100.145 54.8758 100.269 54.9249 100.371 55.0233C100.476 55.1216 100.528 55.2398 100.528 55.3778C100.528 55.5159 100.476 55.6341 100.371 55.7324C100.269 55.8307 100.145 55.8799 100.001 55.8799ZM103.14 61.6159C102.834 61.6159 102.557 61.5584 102.308 61.4433C102.059 61.3262 101.862 61.1578 101.715 60.9381C101.569 60.7164 101.495 60.4486 101.495 60.1348C101.495 59.8587 101.55 59.6349 101.659 59.4633C101.767 59.2897 101.913 59.1537 102.095 59.0554C102.277 58.9571 102.478 58.8839 102.697 58.8358C102.919 58.7855 103.142 58.7458 103.366 58.7165C103.658 58.6789 103.896 58.6506 104.078 58.6318C104.262 58.6109 104.396 58.5764 104.48 58.5282C104.565 58.4801 104.608 58.3965 104.608 58.2772V58.2521C104.608 57.9425 104.523 57.7019 104.354 57.5304C104.187 57.3589 103.933 57.2731 103.592 57.2731C103.238 57.2731 102.961 57.3505 102.76 57.5053C102.559 57.6601 102.418 57.8254 102.336 58.0011L101.634 57.7501C101.759 57.4572 101.926 57.2292 102.136 57.066C102.347 56.9007 102.577 56.7857 102.826 56.7208C103.077 56.6539 103.324 56.6204 103.566 56.6204C103.721 56.6204 103.899 56.6392 104.1 56.6769C104.303 56.7125 104.498 56.7867 104.687 56.8997C104.877 57.0127 105.035 57.1831 105.16 57.4112C105.286 57.6392 105.349 57.9446 105.349 58.3274V61.5029H104.608V60.8503H104.571C104.52 60.9549 104.437 61.0668 104.32 61.186C104.202 61.3052 104.047 61.4067 103.852 61.4904C103.657 61.5741 103.42 61.6159 103.14 61.6159ZM103.253 60.9507C103.546 60.9507 103.792 60.8931 103.993 60.7781C104.196 60.663 104.349 60.5145 104.451 60.3325C104.556 60.1505 104.608 59.9591 104.608 59.7583V59.0805C104.577 59.1182 104.508 59.1527 104.401 59.1841C104.297 59.2133 104.175 59.2395 104.037 59.2625C103.901 59.2834 103.768 59.3022 103.639 59.319C103.511 59.3336 103.407 59.3462 103.328 59.3566C103.136 59.3817 102.956 59.4225 102.788 59.479C102.623 59.5334 102.489 59.616 102.387 59.7269C102.286 59.8357 102.236 59.9842 102.236 60.1725C102.236 60.4298 102.331 60.6243 102.522 60.7561C102.714 60.8858 102.958 60.9507 103.253 60.9507ZM108.796 56.6832V57.3108H106.299V56.6832H108.796ZM107.027 55.5284H107.767V60.1223C107.767 60.3315 107.798 60.4884 107.858 60.593C107.921 60.6955 108 60.7645 108.097 60.8C108.195 60.8335 108.299 60.8503 108.407 60.8503C108.489 60.8503 108.556 60.8461 108.608 60.8377C108.66 60.8272 108.702 60.8189 108.734 60.8126L108.884 61.4778C108.834 61.4967 108.764 61.5155 108.674 61.5343C108.584 61.5552 108.47 61.5657 108.332 61.5657C108.123 61.5657 107.918 61.5207 107.717 61.4308C107.518 61.3408 107.353 61.2038 107.221 61.0197C107.092 60.8356 107.027 60.6034 107.027 60.3231V55.5284ZM109.91 61.5029V56.6832H110.651V61.5029H109.91ZM110.287 55.8799C110.143 55.8799 110.018 55.8307 109.914 55.7324C109.811 55.6341 109.76 55.5159 109.76 55.3778C109.76 55.2398 109.811 55.1216 109.914 55.0233C110.018 54.9249 110.143 54.8758 110.287 54.8758C110.431 54.8758 110.555 54.9249 110.657 55.0233C110.762 55.1216 110.814 55.2398 110.814 55.3778C110.814 55.5159 110.762 55.6341 110.657 55.7324C110.555 55.8307 110.431 55.8799 110.287 55.8799ZM113.965 61.6033C113.53 61.6033 113.148 61.4998 112.82 61.2927C112.494 61.0856 112.238 60.7959 112.054 60.4235C111.872 60.0511 111.781 59.616 111.781 59.1182C111.781 58.6161 111.872 58.1778 112.054 57.8034C112.238 57.4289 112.494 57.1382 112.82 56.9311C113.148 56.724 113.53 56.6204 113.965 56.6204C114.4 56.6204 114.781 56.724 115.107 56.9311C115.436 57.1382 115.691 57.4289 115.873 57.8034C116.057 58.1778 116.149 58.6161 116.149 59.1182C116.149 59.616 116.057 60.0511 115.873 60.4235C115.691 60.7959 115.436 61.0856 115.107 61.2927C114.781 61.4998 114.4 61.6033 113.965 61.6033ZM113.965 60.9381C114.296 60.9381 114.568 60.8534 114.781 60.6839C114.995 60.5145 115.152 60.2917 115.255 60.0156C115.357 59.7395 115.409 59.4403 115.409 59.1182C115.409 58.796 115.357 58.4958 115.255 58.2176C115.152 57.9394 114.995 57.7145 114.781 57.543C114.568 57.3714 114.296 57.2856 113.965 57.2856C113.635 57.2856 113.363 57.3714 113.149 57.543C112.936 57.7145 112.778 57.9394 112.676 58.2176C112.573 58.4958 112.522 58.796 112.522 59.1182C112.522 59.4403 112.573 59.7395 112.676 60.0156C112.778 60.2917 112.936 60.5145 113.149 60.6839C113.363 60.8534 113.635 60.9381 113.965 60.9381ZM118.02 58.6035V61.5029H117.28V56.6832H117.995V57.4363H118.058C118.171 57.1915 118.342 56.9949 118.572 56.8463C118.803 56.6957 119.1 56.6204 119.464 56.6204C119.79 56.6204 120.075 56.6874 120.32 56.8212C120.565 56.953 120.755 57.1539 120.891 57.4237C121.027 57.6915 121.095 58.0304 121.095 58.4404V61.5029H120.355V58.4906C120.355 58.112 120.256 57.817 120.06 57.6057C119.863 57.3923 119.593 57.2856 119.25 57.2856C119.014 57.2856 118.803 57.3369 118.616 57.4394C118.432 57.5419 118.287 57.6915 118.18 57.8881C118.074 58.0848 118.02 58.3232 118.02 58.6035ZM126.026 61.5029L124.557 56.6832H125.335L126.377 60.3733H126.427L127.457 56.6832H128.247L129.264 60.3607H129.314L130.356 56.6832H131.134L129.666 61.5029H128.938L127.883 57.8003H127.808L126.754 61.5029H126.026ZM132.113 61.5029V56.6832H132.854V61.5029H132.113ZM132.49 55.8799C132.345 55.8799 132.221 55.8307 132.116 55.7324C132.014 55.6341 131.962 55.5159 131.962 55.3778C131.962 55.2398 132.014 55.1216 132.116 55.0233C132.221 54.9249 132.345 54.8758 132.49 54.8758C132.634 54.8758 132.757 54.9249 132.86 55.0233C132.965 55.1216 133.017 55.2398 133.017 55.3778C133.017 55.5159 132.965 55.6341 132.86 55.7324C132.757 55.8307 132.634 55.8799 132.49 55.8799ZM136.306 56.6832V57.3108H133.808V56.6832H136.306ZM134.536 55.5284H135.277V60.1223C135.277 60.3315 135.307 60.4884 135.368 60.593C135.431 60.6955 135.51 60.7645 135.606 60.8C135.705 60.8335 135.808 60.8503 135.917 60.8503C135.999 60.8503 136.065 60.8461 136.118 60.8377C136.17 60.8272 136.212 60.8189 136.243 60.8126L136.394 61.4778C136.344 61.4967 136.274 61.5155 136.184 61.5343C136.094 61.5552 135.98 61.5657 135.842 61.5657C135.632 61.5657 135.427 61.5207 135.227 61.4308C135.028 61.3408 134.863 61.2038 134.731 61.0197C134.601 60.8356 134.536 60.6034 134.536 60.3231V55.5284ZM138.264 58.6035V61.5029H137.524V55.0766H138.264V57.4363H138.327C138.44 57.1873 138.609 56.9896 138.835 56.8432C139.063 56.6947 139.367 56.6204 139.745 56.6204C140.074 56.6204 140.361 56.6863 140.608 56.8181C140.855 56.9478 141.046 57.1476 141.182 57.4174C141.32 57.6852 141.389 58.0262 141.389 58.4404V61.5029H140.649V58.4906C140.649 58.1078 140.549 57.8118 140.351 57.6026C140.154 57.3913 139.881 57.2856 139.532 57.2856C139.289 57.2856 139.072 57.3369 138.879 57.4394C138.689 57.5419 138.538 57.6915 138.427 57.8881C138.318 58.0848 138.264 58.3232 138.264 58.6035Z" fill="white"/>
<path d="M60.9472 0H52.6427V8.29079H60.9472V0Z" fill="#41A8FB"/>
<path d="M88.2832 8.27368H79.945V16.5981H88.2832V8.27368Z" fill="#41A8FB"/>
<path d="M77.5555 16.5808H69.2509V24.8716H77.5555V16.5808Z" fill="#3AD6FC"/>
<path d="M77.5555 0H69.2509V8.29079H77.5555V0Z" fill="#00E7C5"/>
<path d="M69.251 8.29053H60.9464V16.5813H69.251V8.29053Z" fill="#3975F4"/>
<path d="M60.9472 16.5808H52.6427V24.8716H60.9472V16.5808Z" fill="#00E7C5"/>
<path d="M15.5171 21.7133L3.30353 16.7987C5.82097 11.8965 9.64467 7.78287 14.3536 4.91093C19.0624 2.03898 24.4739 0.520081 29.992 0.521485V13.5749C27.0814 13.5718 24.2194 14.3195 21.6835 15.7453C19.1474 17.1712 17.0234 19.2269 15.5171 21.7133Z" fill="#3975F4"/>
<path d="M29.6957 47.3447V60.3889C24.8003 60.3409 19.991 59.0971 15.6879 56.7661C11.3848 54.4351 7.71871 51.0879 5.00974 47.0167C2.30077 42.9455 0.63128 38.2741 0.147061 33.4106C-0.337157 28.5469 0.37861 23.6388 2.23187 19.115L14.36 23.9893C13.3055 26.5327 12.8895 29.2949 13.148 32.0355C13.4065 34.7761 14.332 37.412 15.8436 39.7143C17.3553 42.0164 19.4074 43.915 21.8216 45.2449C24.2358 46.5747 26.9388 47.2955 29.6957 47.3447Z" fill="#3975F4"/>
<path d="M59.9719 30.4614C59.9718 38.0107 57.115 45.281 51.9738 50.8167C46.8324 56.3523 39.786 59.7444 32.2459 60.3137V47.1943C36.3037 46.6489 40.0252 44.6523 42.7202 41.5751C45.4151 38.4978 46.9002 34.549 46.8998 30.4614H59.9719Z" fill="#3975F4"/>
<path d="M33.8315 17.4102V30.46H46.903V17.4102H33.8315Z" fill="#3975F4"/>
<path d="M64.3461 38.3409C64.3461 32.1455 68.9566 28.1617 74.6907 28.1617C76.248 28.1176 77.7909 28.4678 79.176 29.1796C80.561 29.8916 81.7429 30.9422 82.6115 32.2332L79.8009 33.8564C79.2154 33.0484 78.4474 32.3896 77.5592 31.9331C76.6712 31.4767 75.6877 31.2356 74.6888 31.2292C70.7877 31.2292 67.8904 34.1802 67.8904 38.3409C67.8904 42.4431 70.7877 45.4526 74.6888 45.4526C76.4089 45.4495 78.0689 44.8207 79.358 43.6838V40.6449H73.4473V37.606H82.7874V44.9537C81.7755 46.0988 80.5285 47.0129 79.1312 47.6338C77.7338 48.2548 76.2189 48.5682 74.6895 48.5525C68.9565 48.5525 64.3461 44.5078 64.3461 38.3409Z" fill="white"/>
<path d="M101.321 48.1665L97.5092 33.6199L93.6667 48.1665H89.9727L84.3571 28.4851H88.199L92.0415 43.6222L96.1198 28.4851H98.8692L102.948 43.6222L106.79 28.4851H110.662L105.016 48.1665H101.321Z" fill="white"/>
<path d="M111.492 38.3411C111.492 32.262 116.013 28.1618 121.837 28.1618C123.426 28.118 124.998 28.5034 126.387 29.2771C127.776 30.0508 128.929 31.1842 129.727 32.5578L126.8 34.0919C126.29 33.2281 125.565 32.5106 124.695 32.009C123.826 31.5074 122.841 31.2388 121.837 31.2293C117.934 31.2293 115.037 34.1804 115.037 38.3411C115.037 42.4431 117.934 45.4528 121.837 45.4528C122.839 45.4372 123.821 45.166 124.69 44.665C125.56 44.164 126.285 43.4499 126.8 42.5901L129.757 44.0651C128.95 45.4419 127.792 46.58 126.401 47.3625C125.009 48.1449 123.434 48.5438 121.837 48.5179C116.013 48.5203 111.492 44.3901 111.492 38.3411Z" fill="white"/>
<path d="M140.06 39.1818L141.717 41.8553H141.767L143.424 39.1818H144.34L142.32 42.395L144.34 45.6082H143.424L141.767 42.9849H141.717L140.06 45.6082H139.144L141.215 42.395L139.144 39.1818H140.06Z" fill="white"/>
<g clip-path="url(#clip0_10_94)">
<path d="M168.556 49.3748C169.865 47.9109 170.762 46.1249 171.152 44.2002C171.662 46.7076 173.023 48.9616 175.005 50.5806C176.986 52.1995 179.467 53.0839 182.025 53.0839C184.584 53.0839 187.064 52.1995 189.046 50.5806C191.027 48.9616 192.388 46.7076 192.898 44.2002V53.0851H196.575V39.8159L203.992 47.2325L211.377 39.8159V53.0831H215.116V44.1981C215.579 46.4772 216.747 48.553 218.455 50.1323C220.162 51.7116 222.322 52.7145 224.631 52.9994C226.939 53.2843 229.278 52.8367 231.318 51.7199C233.359 50.6031 234.996 48.8735 236 46.7756V37.2042C234.996 35.1063 233.359 33.3767 231.318 32.2599C229.278 31.1431 226.939 30.6955 224.631 30.9804C222.322 31.2653 220.162 32.2682 218.455 33.8475C216.747 35.4268 215.579 37.5026 215.116 39.7816V30.8967L203.991 41.9904L192.897 30.8967V39.7816C192.387 37.2743 191.026 35.0202 189.045 33.4013C187.063 31.7824 184.583 30.898 182.024 30.898C179.466 30.898 176.985 31.7824 175.004 33.4013C173.022 35.0202 171.661 37.2743 171.151 39.7816C170.641 37.2743 169.28 35.0203 167.299 33.4011C165.317 31.782 162.837 30.8973 160.279 30.8967H152.924V53.0831H160.279C161.842 53.0847 163.388 52.7551 164.815 52.1159C166.242 51.4767 167.517 50.5425 168.556 49.3748ZM225.989 34.5874C227.454 34.5872 228.885 35.0212 230.103 35.8345C231.32 36.6478 232.269 37.804 232.83 39.1567C233.39 40.5094 233.537 41.9979 233.251 43.434C232.966 44.8702 232.261 46.1894 231.226 47.2248C230.19 48.2602 228.871 48.9654 227.435 49.2512C225.999 49.5369 224.51 49.3903 223.158 48.8301C221.805 48.2698 220.649 47.3209 219.835 46.1034C219.022 44.886 218.587 43.4547 218.587 41.9904C218.587 41.0183 218.779 40.0556 219.151 39.1575C219.522 38.2593 220.068 37.4432 220.755 36.7557C221.442 36.0683 222.258 35.523 223.157 35.1509C224.055 34.7788 225.017 34.5874 225.989 34.5874ZM182.024 34.5874C183.488 34.5872 184.919 35.0212 186.137 35.8345C187.355 36.6478 188.304 37.804 188.864 39.1567C189.425 40.5094 189.571 41.9979 189.286 43.434C189 44.8702 188.295 46.1894 187.26 47.2248C186.225 48.2602 184.906 48.9654 183.469 49.2512C182.033 49.5369 180.545 49.3903 179.192 48.8301C177.839 48.2698 176.683 47.3209 175.869 46.1034C175.056 44.886 174.622 43.4547 174.622 41.9904C174.622 40.0272 175.402 38.1443 176.79 36.756C178.178 35.3677 180.061 34.5876 182.024 34.5874V34.5874ZM156.601 34.605H160.764C162.638 34.7288 164.395 35.5607 165.679 36.932C166.963 38.3033 167.677 40.1115 167.677 41.9899C167.677 43.8683 166.963 45.6764 165.679 47.0478C164.395 48.4191 162.638 49.251 160.764 49.3748H156.601V34.605Z" fill="white"/>
</g>
<defs>
<clipPath id="clip0_10_94">
<rect width="83.0755" height="22.1863" fill="white" transform="translate(152.924 30.8967)"/>
</clipPath>
</defs>
</svg>
