<svg width="68" height="54" viewBox="0 0 68 54" fill="none" xmlns="http://www.w3.org/2000/svg">
<g clip-path="url(#clip0_42_287)">
<path d="M16.0765 54L18.0861 53.6057L21.3966 53.049C23.139 52.759 24.8814 52.4459 26.6122 52.1443L31.944 51.2281L36.6717 50.4278L42.7701 49.3724L47.6488 48.549C47.5559 48.4214 47.4978 48.317 47.4281 48.2358L31.5026 28.2758C31.4164 28.1867 31.3592 28.0737 31.3385 27.9516C31.3178 27.8295 31.3345 27.704 31.3864 27.5915C31.944 26.0838 32.4667 24.5528 33.001 23.0219C33.4308 21.8621 33.8722 20.6211 34.302 19.4149C34.848 17.8608 35.3823 16.2951 35.9399 14.7758C36.3464 13.616 36.7878 12.4562 37.206 11.2964C37.7287 9.84665 38.2514 8.3969 38.7625 6.93556C39.111 5.97294 39.4363 5.01031 39.808 3.96649C39.8893 4.10567 39.9474 4.18685 39.9938 4.27964C46.2587 15.3441 52.512 26.4317 58.7537 37.5425L67.7793 53.5941C67.8348 53.6866 67.9011 53.7722 67.9768 53.8492V53.8492V54.0464L16.0765 54Z" fill="white"/>
<path d="M0 47.6327C0.0769908 47.5841 0.147282 47.5256 0.209088 47.4588L2.69491 43.0052C7.44972 34.5 12.2084 25.9948 16.971 17.4897C17.068 17.3188 17.1938 17.1658 17.3427 17.0374C23.7779 11.4162 30.2209 5.8183 36.6717 0.243557C36.7881 0.13998 36.9217 0.0575501 37.0666 0C37.0666 0.0927835 36.9853 0.197165 36.9388 0.289948C29.8221 16.0554 22.6938 31.8093 15.5538 47.5515C15.4725 47.7255 15.4028 47.8299 15.1705 47.8299H0V47.6327Z" fill="white"/>
</g>
<defs>
<clipPath id="clip0_42_287">
<rect width="68" height="54" fill="white"/>
</clipPath>
</defs>
</svg>
