<svg width="68" height="20" viewBox="0 0 68 20" fill="none" xmlns="http://www.w3.org/2000/svg">
<g clip-path="url(#clip0_42_259)">
<path d="M45.9389 8.28627C46.6631 7.82292 47.4333 7.4441 48.2358 7.15658C50.1674 6.70141 51.9736 6.99206 53.3413 8.70854C53.618 9.05951 53.832 9.08145 54.14 8.70854C55.7688 6.8769 57.7943 6.58625 59.9503 7.27174C60.7569 7.54405 61.4672 8.06435 61.9893 8.76533C62.5114 9.46632 62.8213 10.3157 62.8789 11.2037C62.9624 13.7483 62.9624 16.2983 62.978 18.8429C62.978 19.5394 62.7222 19.7477 62.054 19.6929C61.9572 19.6765 61.8596 19.6655 61.7617 19.66C60.4566 19.66 60.4566 19.66 60.4566 18.2287C60.4566 16.4409 60.4984 14.6531 60.4305 12.8709C60.4128 12.1349 60.2567 11.4099 59.9711 10.7376C59.4961 9.64081 58.4938 9.35016 57.4549 9.42694C55.4138 9.58049 54.4271 10.7705 54.4271 12.9312C54.4271 14.8451 54.4271 16.77 54.4271 18.6619C54.4271 19.5065 54.3019 19.6271 53.5136 19.6381H53.3361C51.8901 19.6381 51.8901 19.6381 51.8901 18.1135C51.8901 16.2819 51.8901 14.4557 51.8901 12.6296C51.8901 11.3737 51.556 10.2331 50.324 9.68468C48.4864 8.85112 45.9441 9.95888 45.871 12.3773C45.8032 14.4502 45.871 16.5232 45.8449 18.6016C45.8449 19.5448 45.7666 19.6326 44.8896 19.6381C43.1878 19.6381 43.3235 19.7368 43.3235 17.96C43.3235 14.8396 43.3235 11.7137 43.3235 8.59337C43.2933 8.3509 43.3412 8.1048 43.4594 7.89415C43.5776 7.68351 43.7595 7.52041 43.976 7.43078C44.3519 7.26626 44.6808 6.99754 45.0201 6.79464C45.5682 6.49302 45.8032 6.64657 45.8449 7.30464C45.8449 7.61175 45.8762 7.91885 45.8971 8.22595C45.8971 8.28079 45.9389 8.30821 45.9389 8.28627Z" fill="white"/>
<path d="M2.44284 4.30491C2.44284 5.45655 2.44284 6.60818 2.44284 7.75981C2.47602 7.97235 2.53207 8.18024 2.60989 8.3795C2.79116 8.31996 2.96609 8.24094 3.13192 8.14369C5.80473 6.32301 9.46418 6.65205 11.5575 8.96628C12.3839 9.84052 12.9491 10.9493 13.1837 12.1564C13.4184 13.3635 13.3122 14.6163 12.8783 15.7609C11.8603 18.4316 9.91835 19.7861 7.17768 19.9068C5.66212 20.029 4.15631 19.5648 2.94399 18.6016C2.67253 18.3768 2.47416 18.4645 2.4846 18.81C2.52114 19.5723 2.11396 19.6819 1.51884 19.671C-0.130783 19.6326 -0.000274522 19.8629 -0.000274522 18.0971C-0.000274522 12.7502 -0.000274522 7.40883 -0.000274522 2.06746C-0.0452841 1.77498 0.00495951 1.47511 0.142327 1.21636C0.279695 0.957604 0.496151 0.755107 0.756673 0.64163C1.04379 0.515499 1.33613 0.307108 1.62847 0.148073C2.1505 -0.153544 2.42718 6.57938e-06 2.43762 0.696469C2.45328 1.881 2.44284 3.09296 2.44284 4.30491ZM6.88012 9.41596C6.36602 9.40503 5.855 9.50188 5.37695 9.70085C4.8989 9.89982 4.46341 10.1969 4.09594 10.5748C3.72848 10.9526 3.43641 11.4036 3.23683 11.9015C3.03724 12.3993 2.93414 12.9339 2.93355 13.4741C2.95763 14.5506 3.37684 15.5756 4.10357 16.3349C4.8303 17.0943 5.8083 17.5292 6.83314 17.5487C7.35245 17.5567 7.86806 17.4556 8.34961 17.2512C8.83117 17.0468 9.26894 16.7433 9.63716 16.3585C10.0054 15.9738 10.2966 15.5155 10.4937 15.0107C10.6908 14.5059 10.7899 13.9648 10.7849 13.4193C10.7844 12.8853 10.6823 12.3569 10.4847 11.865C10.2871 11.3731 9.9979 10.9276 9.63417 10.5547C9.27043 10.1818 8.83945 9.88898 8.36652 9.69343C7.89358 9.49788 7.38823 9.40355 6.88012 9.41596V9.41596Z" fill="white"/>
<path d="M21.2833 20C18.245 19.9013 16.0368 18.3877 15.1755 15.5032C14.863 14.5614 14.7643 13.5559 14.8873 12.5669C15.0104 11.578 15.3518 10.6329 15.8843 9.80716C16.4168 8.98141 17.1256 8.29783 17.9542 7.81097C18.7829 7.32411 19.7083 7.04744 20.6568 7.00303C23.3349 6.80561 25.5222 7.83659 26.8377 10.3647C27.2837 11.1999 27.5454 12.1298 27.6035 13.0855C27.6616 14.0412 27.5146 14.9985 27.1733 15.8865C26.8321 16.7746 26.3053 17.5708 25.6319 18.2163C24.9585 18.8618 24.1556 19.3402 23.2827 19.6161C22.6236 19.7836 21.9561 19.9117 21.2833 20V20ZM21.2259 9.41597C20.7173 9.39419 20.2099 9.48189 19.7349 9.67367C19.2598 9.86545 18.8271 10.1573 18.4633 10.5312C18.0996 10.9051 17.8124 11.3532 17.6196 11.848C17.4267 12.3428 17.3323 12.8737 17.3419 13.4083C17.3256 13.952 17.4146 14.4936 17.6036 15.0001C17.7926 15.5065 18.0776 15.9674 18.4413 16.3546C18.805 16.7418 19.2399 17.0474 19.7195 17.2526C20.199 17.4579 20.7133 17.5586 21.2311 17.5487C22.2567 17.5444 23.2393 17.1152 23.9655 16.3544C24.6917 15.5935 25.1029 14.5625 25.1098 13.4851C25.1227 12.9461 25.0311 12.4099 24.8403 11.9094C24.6496 11.4088 24.3638 10.9543 24.0004 10.5735C23.637 10.1928 23.2035 9.89381 22.7265 9.69479C22.2495 9.49577 21.7389 9.4009 21.2259 9.41597V9.41597Z" fill="white"/>
<path d="M35.4252 19.9013C34.6201 19.9493 33.8141 19.828 33.0543 19.5447C32.2944 19.2613 31.596 18.8215 31 18.2511C30.404 17.6806 29.9223 16.9909 29.5832 16.2225C29.244 15.454 29.0543 14.6222 29.025 13.7757C28.9406 12.3997 29.286 11.0323 30.0086 9.88122C30.7313 8.73014 31.7917 7.85822 33.029 7.39786C34.4095 6.84223 35.9283 6.79342 37.3386 7.25937C38.7489 7.72532 39.9677 8.67863 40.7969 9.96436C41.2704 10.7368 41.5811 11.6066 41.7084 12.5155C41.8356 13.4244 41.7764 14.3514 41.5346 15.2343C41.2929 16.1172 40.8742 16.9356 40.3067 17.6346C39.7392 18.3336 39.0359 18.897 38.2441 19.2871C37.3713 19.7458 36.3997 19.9576 35.4252 19.9013V19.9013ZM31.536 13.4138C31.5147 13.9521 31.598 14.4893 31.7807 14.9928C31.9634 15.4962 32.2417 15.9553 32.5987 16.3422C32.9557 16.729 33.3839 17.0355 33.8573 17.2429C34.3306 17.4503 34.8392 17.5543 35.3521 17.5487C35.8734 17.5721 36.3939 17.4849 36.8825 17.2924C37.371 17.0998 37.8177 16.8058 38.1957 16.4279C38.5737 16.05 38.8753 15.5959 39.0826 15.0928C39.2898 14.5897 39.3984 14.0479 39.402 13.4998C39.4055 12.9516 39.3038 12.4083 39.103 11.9024C38.9022 11.3964 38.6064 10.9381 38.2333 10.5549C37.8601 10.1717 37.4173 9.87137 36.9313 9.67192C36.4452 9.47247 35.9259 9.37795 35.4043 9.39402C33.2326 9.37209 31.369 11.3134 31.536 13.4138Z" fill="white"/>
<path d="M67.692 13.3151V18.7387C67.692 19.5723 67.5197 19.7423 66.721 19.7532C65.1967 19.7532 65.1549 19.7532 65.1549 18.108V8.36305C65.1477 8.09661 65.167 7.83012 65.2123 7.56787C65.3637 6.84399 65.6404 6.97012 67.076 6.9756C67.598 6.9756 67.6816 7.37593 67.6816 7.8311C67.6868 9.65726 67.692 11.5163 67.692 13.3151Z" fill="white"/>
<path d="M66.3869 4.84235C66.1793 4.84525 65.9732 4.80385 65.7812 4.72066C65.5893 4.63747 65.4154 4.51422 65.27 4.35837C65.1247 4.20252 65.011 4.01731 64.9359 3.81395C64.8607 3.6106 64.8255 3.39333 64.8326 3.1753C64.8397 2.95727 64.8888 2.74302 64.977 2.54551C65.0652 2.34801 65.1906 2.17136 65.3457 2.02626C65.5008 1.88116 65.6822 1.77063 65.8792 1.70136C66.0761 1.63209 66.2843 1.60552 66.4913 1.62326C66.6937 1.62537 66.8937 1.6698 67.0796 1.75398C67.2655 1.83816 67.4336 1.96039 67.574 2.11354C67.7145 2.26669 67.8245 2.44769 67.8976 2.64598C67.9707 2.84427 68.0055 3.05588 68 3.26845C67.9823 3.70098 67.8031 4.10876 67.5011 4.40339C67.1992 4.69801 66.7988 4.85573 66.3869 4.84235Z" fill="white"/>
</g>
<defs>
<clipPath id="clip0_42_259">
<rect width="68" height="20" fill="white"/>
</clipPath>
</defs>
</svg>
