<svg width="78" height="20" viewBox="0 0 78 20" fill="none" xmlns="http://www.w3.org/2000/svg">
<g clip-path="url(#clip0_42_278)">
<path d="M57.7976 7.33997C58.1737 6.01444 58.8293 4.77797 59.7234 3.70789C60.8912 2.289 62.447 1.21305 64.2151 0.601396C65.9832 -0.0102558 67.8934 -0.133268 69.7301 0.246234C71.9548 0.64915 73.9709 1.77053 75.4465 3.42578C76.4811 4.49926 77.2133 5.81039 77.5734 7.23419C77.8187 8.13557 77.9637 9.05958 78.0061 9.99058C78.037 11.6844 77.595 13.3551 76.7263 14.8275C76.0625 16.0194 75.1468 17.0637 74.0382 17.8928C72.9297 18.722 71.653 19.3175 70.2908 19.6409C66.3417 20.5871 62.9777 19.541 60.1439 16.7434C59.0134 15.5981 58.2075 14.1914 57.8037 12.6588C57.7672 12.5413 57.7367 12.4237 57.7062 12.3062H57.6453V12.6412C57.6453 14.992 57.6453 17.3566 57.6453 19.7349C57.6393 19.7986 57.627 19.8616 57.6087 19.923H54.1716V8.10988C53.9522 8.30383 53.8364 8.39787 53.7328 8.50365C51.7034 10.4666 49.6679 12.4296 47.6386 14.3808C47.3582 14.6512 47.1998 14.6453 46.9316 14.3808C44.9327 12.4237 42.9216 10.4843 40.9166 8.50365C40.8141 8.38118 40.7243 8.24929 40.6485 8.10988L40.4961 8.2098V19.9818H37.0651V12.3414C35.2368 17.5192 31.5803 20.2168 26.0284 19.9347C22.3049 19.7408 18.3497 17.2665 16.8871 12.2298C16.753 12.6 16.6616 12.8645 16.5702 13.129C16.023 14.7903 15.0293 16.2821 13.6902 17.4528C12.351 18.6235 10.7142 19.4312 8.94632 19.7937C8.3583 19.921 7.75728 19.9841 7.15462 19.9818C4.91804 19.9818 2.68755 19.9818 0.450973 19.9818H0V0.052287C0.164544 0.052287 0.304711 0.052287 0.444878 0.052287C2.66318 0.0287784 4.87538 -0.0417476 7.09977 0.0464099C8.55193 0.0652362 9.98216 0.390716 11.2898 0.999948C12.5975 1.60918 13.7509 2.48736 14.6688 3.57271C15.6725 4.68726 16.3851 6.01728 16.7469 7.45164C16.7836 7.534 16.8285 7.61273 16.881 7.68673C18.5691 2.79105 21.9392 -0.0652563 27.3143 0.0757957C32.336 0.210971 35.4867 3.01438 37.0651 7.68085V0.210971L47.2181 10.0729C50.7405 6.67585 54.135 3.40227 57.5234 0.122813L57.6392 0.181585V7.68085H57.694L57.7976 7.33997ZM26.9304 16.6377C27.8356 16.6486 28.734 16.4853 29.573 16.1574C30.412 15.8294 31.1747 15.3434 31.8165 14.7277C32.4583 14.112 32.9664 13.3791 33.3109 12.5717C33.6554 11.7644 33.8295 10.8989 33.823 10.0258C33.8512 8.27228 33.156 6.5797 31.8903 5.32046C30.6245 4.06121 28.8919 3.33845 27.0736 3.31118C25.2553 3.2839 23.5002 3.95434 22.1944 5.17501C20.8887 6.39567 20.1392 8.06658 20.1109 9.82014C20.0841 10.7022 20.2404 11.5805 20.5704 12.4036C20.9005 13.2266 21.3978 13.9777 22.0331 14.6128C22.6683 15.2479 23.4288 15.7542 24.2698 16.1019C25.1108 16.4496 26.0154 16.6318 26.9304 16.6377V16.6377ZM67.7922 16.6377C69.1557 16.6233 70.4841 16.2181 71.6082 15.4737C72.7323 14.7293 73.6015 13.6792 74.1052 12.4571C74.6088 11.235 74.7242 9.89608 74.4366 8.61057C74.1491 7.32507 73.4715 6.15108 72.4902 5.23793C71.5089 4.32478 70.2682 3.71372 68.9258 3.48247C67.5834 3.25121 66.2 3.41021 64.9515 3.93925C63.7031 4.46828 62.646 5.34345 61.9147 6.45344C61.1834 7.56343 60.811 8.85809 60.8447 10.1728C60.8784 11.9181 61.6289 13.5793 62.9315 14.7914C64.2341 16.0035 65.9823 16.6675 67.7922 16.6377V16.6377ZM3.44324 16.6377H3.95515C4.94851 16.6377 5.94187 16.6847 6.92304 16.6377C7.69921 16.6102 8.46706 16.4736 9.20228 16.2321C10.7635 15.6879 12.0619 14.6076 12.849 13.198C13.636 11.7884 13.8565 10.1484 13.4682 8.59181C13.1586 7.10632 12.3177 5.77291 11.0925 4.8244C9.86724 3.87589 8.33546 3.37256 6.76459 3.40227C5.8078 3.40227 4.84491 3.40227 3.88812 3.40227C3.72967 3.40227 3.57122 3.40227 3.40058 3.40227L3.44324 16.6377Z" fill="white"/>
</g>
<defs>
<clipPath id="clip0_42_278">
<rect width="78" height="20" fill="white"/>
</clipPath>
</defs>
</svg>
