<svg width="42" height="65" viewBox="0 0 42 65" fill="none" xmlns="http://www.w3.org/2000/svg">
<g clip-path="url(#clip0_42_155)">
<path d="M13.5821 0H14.9632C15.8788 0.17273 16.7151 0.632071 17.3499 1.31102L17.4708 1.45669L18.1582 2.88804V4.32573L17.7191 5.63042L17.3308 5.33908C17.1644 5.15652 16.988 4.98315 16.8025 4.81974C16.7229 4.7699 16.6642 4.69298 16.6372 4.60328C16.6103 4.51358 16.617 4.4172 16.6562 4.33207C16.7992 3.93381 16.823 3.5028 16.7247 3.09134C16.6265 2.67987 16.4103 2.30563 16.1024 2.01403C15.8239 1.69235 15.4555 1.46037 15.0441 1.34759C14.6327 1.23481 14.1969 1.24633 13.7921 1.38069L12.9711 1.77969C12.5907 2.03556 12.3135 2.41689 12.1882 2.85638C12.0832 3.14429 12.0372 3.45022 12.053 3.75611C12.0688 4.062 12.146 4.36165 12.28 4.63735C12.4141 4.91306 12.6024 5.15923 12.8336 5.36134C13.0649 5.56345 13.3346 5.7174 13.6266 5.81409C14.0977 6.03171 14.6337 6.06561 15.1287 5.90909C15.2241 5.87742 15.3769 5.83942 15.4278 5.90909C15.7906 6.21309 16.1343 6.54243 16.5034 6.88444L16.0006 7.20111L15.8606 7.25811L14.4222 7.53678L12.9774 7.27711C12.2535 6.93926 11.6321 6.41708 11.1762 5.76342L10.648 4.32573L10.7116 2.88171L11.4563 1.45036L11.5772 1.29835C12.0609 0.956348 12.5383 0.595342 13.0283 0.266004C13.2051 0.162141 13.3904 0.0731636 13.5821 0V0Z" fill="white"/>
<path d="M23.1672 64.7277L21.7224 64.3857L20.2649 63.8916L17.3626 62.3716L16.8598 62.0233L15.9115 61.2759L15.2114 60.6426L14.4477 59.8636L13.8876 59.2302L12.9965 58.0142L12.8501 57.7926L11.399 54.9045L10.9217 53.4542C10.8007 52.8778 10.6607 52.3015 10.5652 51.7251C10.2435 50.0969 10.1557 48.4315 10.3043 46.7787C10.4443 45.626 10.7307 44.4924 10.9408 43.3523L11.3926 42.0476C11.4499 41.959 11.5008 41.8703 11.5518 41.7816C12.0036 40.9583 12.4237 40.1223 12.9201 39.3306C13.3084 38.6973 13.7985 38.1653 14.244 37.5826L14.4413 37.3609L15.7588 36.1006L15.9115 35.9739L16.2679 35.7586L17.5408 37.5509C18.0182 38.2539 18.4892 38.9696 18.9792 39.6599C19.016 39.6926 19.0453 39.7326 19.0655 39.7774C19.0856 39.8221 19.096 39.8706 19.096 39.9196C19.096 39.9686 19.0856 40.0171 19.0655 40.0618C19.0453 40.1066 19.016 40.1466 18.9792 40.1793C18.5019 40.7303 18.0564 41.313 17.6045 41.883C16.961 42.7567 16.4723 43.7334 16.1597 44.771C15.9624 45.6894 15.6824 46.6014 15.5678 47.5324C15.3868 49.0244 15.5367 50.5377 16.007 51.9658L16.5225 53.4035C16.542 53.4723 16.5654 53.54 16.5925 53.6062C17.1947 54.979 18.0594 56.2223 19.1384 57.2669C19.8572 57.9974 20.7051 58.59 21.6397 59.0149C22.5682 59.5194 23.5862 59.8399 24.6374 59.9586L26.0949 60.0726L27.5524 59.9839C28.5675 59.8626 29.5538 59.5669 30.4674 59.1099C31.5212 58.6265 32.4769 57.9545 33.2869 57.1275C34.3898 56.091 35.2578 54.8322 35.8327 53.4352C36.2774 52.5267 36.5656 51.5505 36.6856 50.5471C36.9082 49.4297 36.9212 48.2809 36.7238 47.1587C36.5901 46.3544 36.3482 45.5627 36.1509 44.7647L35.559 43.3207L34.8207 42.054L34.738 41.9083C34.3561 41.4016 33.9997 40.8696 33.5796 40.3946C32.7075 39.3905 31.62 38.594 30.3973 38.0639C29.4903 37.5943 28.5004 37.3039 27.4824 37.2089L26.0249 37.1202C25.0391 37.1015 24.058 37.2603 23.129 37.5889L21.6015 38.2223L21.0414 38.4756L19.4375 36.1006L18.801 35.2202L18.4192 34.6565L18.2664 34.3335L18.9029 33.9472L21.716 32.7818L23.1608 32.4208L24.6183 32.2055C26.0718 32.1083 27.5316 32.1699 28.9717 32.3892L30.4164 32.7185L31.8739 33.2062L32.0203 33.2695L33.2932 33.8649L34.5343 34.5805L36.2019 35.8092L37.9394 37.5446L39.8997 40.4326L40.4852 41.5853L40.6062 41.883L41.1472 43.3207L41.5418 44.7774C41.6818 45.7337 41.8154 46.6774 41.9555 47.6527V49.0968V49.2424V49.8188L41.319 53.4288L40.8353 54.8602L39.4096 57.6659C38.7849 58.5453 38.1135 59.3909 37.3984 60.1993C36.5965 61.0226 35.6545 61.7066 34.7762 62.4476L31.8548 63.9677L30.4164 64.449C28.8963 64.8677 27.3213 65.0556 25.7448 65.0063C24.8856 64.9367 24.0264 64.8163 23.1672 64.7277Z" fill="white"/>
<path d="M17.1399 10.1335L17.98 8.23346C18.6165 8.80347 19.1447 9.29114 19.673 9.79782C19.7239 9.84848 19.673 10.0005 19.673 10.1082L19.2529 11.5522L19.4248 13.0025C19.4394 13.1222 19.4761 13.2381 19.533 13.3445C19.6103 13.4207 19.6683 13.514 19.7023 13.6169C19.7363 13.7197 19.7453 13.8291 19.7285 13.9361C19.7117 14.0431 19.6697 14.1445 19.6058 14.2322C19.5419 14.3198 19.4581 14.3911 19.3611 14.4402L18.7947 15.0039L18.1264 15.6056L17.8845 15.2509C17.4554 14.5565 17.1497 13.7938 16.9808 12.9962L16.8916 11.5522L17.1399 10.1335Z" fill="white"/>
<path d="M24.6119 5.78242L24.8283 5.85209L26.0503 6.39043C26.9849 6.96805 27.7751 7.74995 28.3607 8.6768L28.8953 9.82315L28.978 10.1082L29.2072 11.5522L29.1181 12.9962C28.888 14.0517 28.4201 15.0413 27.7497 15.8906L27.5142 16.1692L26.0567 17.3156L24.6119 17.9173L23.1608 18.1453L21.7097 17.9806L20.3667 17.4676L20.2776 17.4169L20.1185 17.3346L19.412 16.8153L20.2713 15.8842C20.3391 15.8344 20.4029 15.7793 20.4622 15.7196C20.7932 15.2762 21.1623 14.9722 21.7351 15.3902L23.1862 15.6689L24.6374 15.3776C25.1727 15.1987 25.6468 14.8739 26.0058 14.4402L26.1712 14.2312C26.7349 13.5969 27.0452 12.7789 27.0432 11.9322C27.0622 11.4183 26.9762 10.906 26.7903 10.4262C26.6045 9.9464 26.3228 9.50911 25.9622 9.14082C25.6016 8.77252 25.1697 8.48088 24.6925 8.28355C24.2154 8.08622 23.7029 7.9873 23.1862 7.99279C22.5292 7.95424 21.8767 8.12266 21.3214 8.47413C21.2693 8.51935 21.2079 8.55276 21.1414 8.57203C21.075 8.5913 21.0052 8.59597 20.9368 8.58573C20.8684 8.57549 20.803 8.55058 20.7453 8.51272C20.6875 8.47485 20.6387 8.42495 20.6022 8.36646C20.2076 7.96112 19.7748 7.59378 19.3611 7.20744C19.1956 7.04277 19.2657 6.94144 19.4311 6.81477C20.1185 6.31226 20.89 5.93487 21.7097 5.70009L23.1608 5.54808L24.6119 5.78242Z" fill="white"/>
<path d="M14.4667 33.2125L14.9504 33.9345L12.9965 34.7642L11.5518 35.0999L10.0943 35.2075L8.64949 35.0935L7.19837 34.7515L6.6892 34.5869L5.72814 34.2005L4.29611 33.3075L4.15609 33.2125L2.84498 32.0598L2.54584 31.7685C1.82739 30.8852 1.22826 29.9122 0.763754 28.8741L0.292773 27.4428L0.0509186 25.9987V25.8467V24.58L0.210034 23.136L0.57918 21.692L1.16472 20.3366C1.68662 19.602 2.16397 18.8356 2.73042 18.1389C3.56963 17.1656 4.58687 16.3597 5.72814 15.7639L7.20473 15.2002C8.61334 14.7824 10.0952 14.668 11.5518 14.8646L12.9965 15.1939L14.4476 15.7702L14.7213 15.9096L15.9115 16.6316C16.0707 16.7501 16.2217 16.8791 16.3634 17.0179C16.4143 17.0686 16.4143 17.1826 16.4398 17.2649L14.4795 19.222L13.7603 19.8553L13.0347 19.469L12.9456 19.412L11.5772 18.88L10.1197 18.6836L8.66859 18.823L7.21746 19.3296L5.89362 20.2163L5.72814 20.3556L4.65252 21.6603C4.07373 22.5186 3.74949 23.5216 3.71693 24.5547L3.81876 25.9987C3.96602 26.6135 4.16399 27.2151 4.41067 27.7974C4.81661 28.635 5.41251 29.3674 6.15142 29.9367C6.89032 30.506 7.75202 30.8968 8.66859 31.0781L10.1261 31.2301L11.5518 31.0338L12.6146 30.7171L13.0029 31.1921L13.4293 31.7812L14.3776 33.0478L14.4667 33.2125Z" fill="white"/>
<path d="M17.3563 32.0598L16.9489 32.4018L14.6386 29.3364L15.7524 27.4364L15.9815 26.8031C16.2788 25.9362 16.3698 25.0124 16.2472 24.1046C16.1246 23.1968 15.7918 22.3297 15.275 21.5717L14.9695 21.065L15.6951 20.2986L15.9879 20.0073L17.1526 18.861L17.4454 18.5633L17.7 18.3859L18.0627 18.785L18.7374 19.7856L18.9665 20.2163L19.603 21.673L19.9721 23.117C20.2301 24.5459 20.2042 26.0112 19.8957 27.4301L19.4629 28.7854C19.0003 29.8568 18.3898 30.8587 17.649 31.7622L17.3563 32.0598Z" fill="white"/>
</g>
<defs>
<clipPath id="clip0_42_155">
<rect width="42" height="65" fill="white"/>
</clipPath>
</defs>
</svg>
