<svg width="64" height="64" viewBox="0 0 64 64" fill="none" xmlns="http://www.w3.org/2000/svg">
<g clip-path="url(#clip0_42_183)">
<path d="M64 36.5481C64 41.5612 63.903 46.5742 64 51.5872C64.1358 57.0795 59.5685 59.4279 54.9139 58.0764C53.3624 57.6259 51.8303 57.1179 50.3079 56.6578C49.3382 56.3319 48.7079 55.5747 49.2703 54.7407C49.5145 54.4776 49.8159 54.2727 50.1519 54.1416C50.4878 54.0104 50.8495 53.9564 51.2097 53.9835C52.8485 54.2711 54.4097 54.8845 56.0582 55.3159C58.7055 56.0156 60.8485 54.6161 60.9067 51.9994C60.9649 41.5133 60.9067 31.0367 60.9067 20.5601C60.9413 19.7386 60.6781 18.9317 60.1643 18.285C59.6505 17.6383 58.9199 17.1943 58.1042 17.0328C41.9943 12.3872 25.9265 7.7416 9.90061 3.096C7.11758 2.30044 5.21697 3.83406 5.18788 6.79587C5.18788 11.9143 5.18788 17.0424 5.18788 22.1321V27.5956C5.18788 28.6117 4.90667 29.5127 3.69454 29.5127C2.48242 29.5127 2.10424 28.6117 2.11394 27.5189C2.11394 20.5122 2.11394 13.5055 2.11394 6.49873C2.11394 1.82118 6.15758 -1.09271 10.8412 0.249214C21.3915 3.31646 31.8933 6.39329 42.4048 9.44137C47.7188 10.975 53.0327 12.515 58.3467 14.0614C62.3709 15.2308 64 17.2533 64 21.3365C64 26.4071 64 31.4776 64 36.5481Z" fill="white"/>
<path d="M36.0242 42.9031C36.0242 37.43 35.937 31.9665 36.0824 26.5029C36.1187 25.1592 36.6105 23.8664 37.4788 22.8318C39.4764 20.7327 43.297 21.7774 44.0921 24.5092C44.2673 25.1689 44.3456 25.85 44.3248 26.5317C44.3248 37.2287 44.3248 47.9321 44.3248 58.6419C44.3281 59.619 44.1709 60.5901 43.8594 61.5175C43.2097 63.4345 41.7939 64.1821 39.36 64C38.5351 63.9387 37.7595 63.5884 37.1729 63.012C36.5862 62.4356 36.227 61.671 36.16 60.8561C36.0355 59.3257 35.9934 57.79 36.0339 56.2552C36.0145 51.7598 36.0242 47.341 36.0242 42.9031Z" fill="white"/>
<path d="M32.3685 42.5772C32.3685 46.5071 32.3685 50.437 32.3685 54.3669C32.3803 54.9373 32.3478 55.5077 32.2715 56.0731C31.8448 58.6419 30.0315 60.1947 27.7333 60.0126C25.4352 59.8305 24.097 58.2297 24.097 55.5363C24.097 47.2292 24.097 38.9221 24.097 30.615C24.097 27.9599 25.7842 26.1674 28.1988 26.1195C30.6133 26.0716 32.3491 27.7969 32.3685 30.6437C32.3879 34.6024 32.3685 38.5898 32.3685 42.5772Z" fill="white"/>
<path d="M20.2958 43.0181C20.2958 45.6828 20.2958 48.357 20.2958 51.0217C20.2958 53.6864 18.6182 55.4117 16.1552 55.4309C13.6921 55.4501 12.0242 53.8493 12.0048 51.0888C12.0048 45.6924 12.0048 40.2959 12.0048 34.8995C12.0048 32.2253 13.7115 30.4903 16.1358 30.4712C18.56 30.452 20.2473 32.1486 20.2958 34.8324C20.3442 37.5163 20.2958 40.2576 20.2958 43.0181Z" fill="white"/>
<path d="M0.0484847 43.1331V38.5323C0.00944397 38.014 0.0798822 37.4934 0.255325 37.0034C0.430767 36.5135 0.707379 36.065 1.06759 35.6864C1.42779 35.3078 1.86373 35.0074 2.34768 34.8043C2.83164 34.6012 3.35305 34.4998 3.87879 34.5065C4.9453 34.4462 5.99263 34.8054 6.79205 35.5058C7.59148 36.2063 8.07803 37.1909 8.14545 38.2447C8.23273 39.2607 8.14545 40.2864 8.14545 41.312C8.14545 43.4686 8.20364 45.6349 8.14545 47.7915C8.13431 48.5775 7.87902 49.3411 7.41418 49.9789C6.94933 50.6167 6.29739 51.0979 5.54667 51.3572C4.86865 51.6804 4.10695 51.7911 3.3635 51.6747C2.62005 51.5582 1.93033 51.22 1.38667 50.7054C0.696373 49.9775 0.249474 49.0572 0.106667 48.0695C-0.0142413 46.4267 -0.0336714 44.7782 0.0484847 43.1331V43.1331Z" fill="white"/>
</g>
<defs>
<clipPath id="clip0_42_183">
<rect width="64" height="64" fill="white"/>
</clipPath>
</defs>
</svg>
