<?xml version="1.0" encoding="utf-8"?>
<!-- Generator: Adobe Illustrator 23.0.1, SVG Export Plug-In . SVG Version: 6.00 Build 0)  -->
<svg version="1.1" id="Layer_1" xmlns="http://www.w3.org/2000/svg" xmlns:xlink="http://www.w3.org/1999/xlink" x="0px" y="0px"
	 viewBox="0 0 55 49" style="enable-background:new 0 0 55 49;" xml:space="preserve">
<style type="text/css">
	.st0{display:none;fill:#FFFFFF;}
</style>
<path class="st0" d="M54.9,43.1c0-0.1,0-0.2-0.1-0.2l0,0c0-0.1,0-0.1-0.1-0.2l-0.1-0.2c0,0,0,0,0-0.1v-0.1
	c-3.4-5.9-6.8-11.9-10.3-17.8c-0.2-0.2-0.3-0.5-0.3-0.8s0.1-0.5,0.3-0.8c2.1-3.5,4.1-7,6.1-10.6c0.2-0.3,0.3-0.6,0.6-1
	c0.2,0.7,0.3,1.2,0.5,1.7c0.6,2.1,1.7,2.5,3.2,1v0v-0.1c0-0.1,0-0.2,0.1-0.2c0,0,0-0.1,0-0.1v-0.6l-0.1-0.3c0-0.1,0-0.2-0.1-0.2
	c-0.1-0.2-0.1-0.5-0.2-0.7v-0.2c0-0.1-0.1-0.1-0.1-0.2c-0.4-1.6-0.9-3.2-1.3-4.8c0-0.2-0.1-0.4-0.2-0.6C53,6,52.8,5.8,52.6,5.7
	c-0.2-0.1-0.4-0.2-0.6-0.2c-0.2,0-0.4,0-0.6,0c-2.2,0.5-4.3,1.1-6.4,1.7c-0.2,0-0.4,0.1-0.6,0.3c-0.2,0.1-0.3,0.3-0.4,0.5
	c-0.1,0.2-0.2,0.4-0.2,0.6c0,0.2,0,0.4,0.1,0.6c0.1,0.2,0.1,0.4,0.3,0.6c0.1,0.2,0.3,0.3,0.5,0.4c0.2,0.1,0.4,0.2,0.6,0.2
	c0.2,0,0.4,0,0.6-0.1l2.4-0.6l-6.2,10.8c-0.2-0.4-0.4-0.6-0.5-0.9c-3.2-5.6-6.5-11.2-9.7-16.9c-0.4-0.8-1-1.5-1.8-1.9
	C29.3,0.3,28.4,0,27.5,0c-0.9,0-1.8,0.2-2.5,0.7c-0.8,0.5-1.4,1.1-1.8,1.9C15.6,15.8,8,29.1,0.3,42.3c0,0.1-0.1,0.2-0.1,0.3
	c0,0.1-0.1,0.2-0.1,0.3c0,0.1,0,0.2-0.1,0.2v2c0.1,0.1,0.2,0.3,0.2,0.4c0.3,1,0.9,1.9,1.8,2.5C2.9,48.7,3.9,49,5,49h5.3
	c0.3,0,0.6,0,0.8-0.1c0.4-0.1,0.7-0.4,0.9-0.7c0.2-0.3,0.3-0.7,0.2-1.1c-0.1-0.4-0.3-0.7-0.6-1c-0.3-0.2-0.7-0.4-1.1-0.3
	c-1.9,0-3.8,0-5.7,0c-0.3,0-0.5-0.1-0.8-0.2c-0.2-0.1-0.4-0.3-0.6-0.6c-0.1-0.2-0.2-0.5-0.2-0.8c0-0.3,0.1-0.5,0.2-0.8
	c0.1-0.2,0.1-0.3,0.2-0.5L17,19.9c3-5.2,6-10.4,9-15.6c0.8-1.4,2.2-1.4,3,0l0.2,0.3c3.2,5.5,6.3,11,9.5,16.5
	c0.5,0.9,1.4,1.7,1.4,2.6c0,0.9-0.9,1.8-1.4,2.7c-1.3,2.2-2.5,4.4-3.9,6.7c-0.2-0.3-0.4-0.6-0.5-0.8c-1.3-2.2-2.7-4.4-3.9-6.7
	c-0.3-0.5-0.7-1-1.2-1.3c-0.5-0.3-1.1-0.5-1.7-0.5c-0.6,0-1.2,0.2-1.7,0.5c-0.5,0.3-0.9,0.8-1.2,1.3c-1.4,2.7-3,5.3-4.6,7.9
	s-3.2,5.5-4.7,8.3c-0.4,0.7-0.6,1.5-0.6,2.4c0,0.8,0.2,1.6,0.6,2.4c0.4,0.7,1,1.3,1.7,1.8c0.7,0.4,1.5,0.7,2.3,0.7
	c10.4,0,20.7,0,31.1,0c0.6,0,1.2-0.1,1.7-0.3c0.5-0.2,1-0.6,1.4-1c0.5-0.6,0.9-1.3,1.3-2c0-0.1,0.1-0.2,0.1-0.4l0,0c0,0,0-0.1,0-0.1
	l0.1-0.2c0,0,0-0.1,0-0.1c0,0.1,0,0.1,0,0c0-0.1,0-0.2,0-0.3c0-0.1,0-0.3,0-0.5C54.9,43.8,54.9,43.5,54.9,43.1L54.9,43.1z M50,45.7
	H19.6c-0.3,0-0.6,0-0.8-0.1c-0.3-0.1-0.5-0.3-0.6-0.6c-0.2-0.2-0.2-0.5-0.2-0.8c0-0.3,0.1-0.6,0.2-0.8c3.1-5.4,6.2-10.8,9.4-16.3
	l3.8,6.5l0.6,1.1c0.3,0.5,0.7,1,1.2,1.3c0.5,0.3,1.1,0.5,1.7,0.5c0.6,0,1.2-0.2,1.7-0.5c0.5-0.3,0.9-0.8,1.2-1.3
	c1.4-2.3,2.7-4.7,4.1-7l0.4-0.7l2.7,4.6c2.2,3.8,4.3,7.6,6.5,11.3c0.1,0.1,0.2,0.3,0.3,0.4c0.1,0.2,0.2,0.5,0.2,0.8
	c0,0.3-0.1,0.6-0.2,0.8c-0.1,0.2-0.4,0.4-0.6,0.6C50.6,45.7,50.4,45.7,50,45.7L50,45.7z"/>
<image style="overflow:visible;" width="400" height="400" xlink:href="../../../../Users/vasanth/Downloads/7187C8A6-A543-41C2-9400-1A6B5925F692.png"  transform="matrix(0.1203 0 0 0.1203 4.4706 -0.1176)">
</image>
</svg>
