<svg width="74" height="74" viewBox="0 0 74 74" fill="none" xmlns="http://www.w3.org/2000/svg">
<g clip-path="url(#clip0_42_200)">
<path d="M38.953 29.3095C38.953 30.667 38.953 31.9296 38.953 33.2192C38.953 34.5089 39.4078 34.8347 40.5582 34.8076C42.9393 34.8076 45.3203 34.8076 47.688 34.8076C49.0257 34.8076 49.3601 35.3913 49.32 36.5724C49.2798 37.7534 49.4671 38.8802 47.7549 38.8395C45.628 38.8395 43.5011 38.9617 41.3876 38.8395C39.2741 38.7173 38.7925 39.3689 38.9129 41.3374C39.06 43.6859 38.9129 46.0345 38.9129 48.383C38.9798 50.0528 38.0166 50.0528 36.8127 50.0936C35.6088 50.1343 34.8865 49.8628 34.9266 48.3966C35.0069 45.7901 34.9266 43.1701 34.9266 40.5636C34.9266 39.206 34.4049 38.7444 33.1074 38.7852C30.927 38.8531 28.7332 38.7852 26.5528 38.7852C24.9743 38.7852 24.8138 37.9706 24.8004 36.6945C24.7871 35.4185 25.0814 34.6446 26.6197 34.7261C28.7332 34.8483 30.8601 34.6582 32.9736 34.7261C34.5654 34.8211 34.9801 34.1695 34.9266 32.6898C34.833 30.219 34.9266 27.7347 34.9266 25.2504C34.8597 23.6757 35.6623 23.4584 36.9331 23.4313C38.2039 23.4041 39.0065 23.7843 38.9129 25.3047C38.8861 26.703 38.953 28.0062 38.953 29.3095Z" fill="white"/>
<path d="M57.8543 12.1365C57.8543 17.173 57.8543 17.173 62.8171 17.173C63.6598 17.173 64.4892 17.173 65.3319 17.173C66.1746 17.173 67.0575 17.3088 67.0709 18.6256C67.0842 19.9424 66.6161 20.3632 65.372 20.3632C63.6999 20.3632 62.0278 20.3632 60.3558 20.3632C57.8677 20.3632 57.8677 20.3632 57.8543 22.9969C57.8543 24.816 57.8543 26.6487 57.8543 28.4271C57.8543 29.6489 57.4396 30.1783 56.1822 30.1919C54.9248 30.2055 54.3362 29.6896 54.363 28.3592C54.363 26.2686 54.363 24.178 54.363 22.1009C54.363 20.7434 53.8413 20.2546 52.5304 20.2954C50.671 20.3632 48.7983 20.2954 46.9389 20.2954C45.8153 20.2954 45.3069 19.9153 45.3203 18.707C45.3337 17.4988 45.842 17.1051 46.9657 17.1323C48.8919 17.1323 50.8182 17.1323 52.7444 17.1323C53.8948 17.1323 54.3764 16.6707 54.363 15.5168C54.363 13.3719 54.363 11.2134 54.363 9.06843C54.363 7.71088 54.6974 7.00496 56.1822 7.00496C57.667 7.00496 57.9212 7.72446 57.8677 8.97341C57.8142 10.0459 57.8543 11.0912 57.8543 12.1365Z" fill="white"/>
<path d="M19.6504 48.0708C19.6504 53.1752 19.6504 53.1752 24.6399 53.1752C25.4827 53.1752 26.312 53.1752 27.1414 53.1752C27.9707 53.1752 28.8803 53.1752 28.8803 54.5327C28.8803 55.8903 28.4389 56.2433 27.2082 56.2025C25.282 56.2025 23.3558 56.2025 21.4295 56.2025C20.0918 56.2025 19.5701 56.6098 19.6236 57.9945C19.7173 60.2752 19.6236 62.5559 19.6236 64.7822C19.6236 66.1398 18.9013 66.1398 17.8981 66.1398C16.8948 66.1398 16.1323 66.1398 16.1591 64.7822C16.1591 62.4473 16.1591 60.0987 16.1591 57.7501C16.1591 56.5691 15.7444 56.1075 14.594 56.1347C12.7346 56.1347 10.8619 56.1347 9.00253 56.1347C7.89227 56.1347 7.03616 56.1346 7.04953 54.5327C7.06291 52.9308 7.91902 53.1073 8.92227 53.1073C10.8485 53.1073 12.7748 53.1073 14.701 53.1073C15.7845 53.1073 16.1725 52.6865 16.1591 51.614C16.1591 49.4012 16.1591 47.1884 16.1591 44.9756C16.1591 43.7402 16.1591 42.9257 17.8445 42.885C19.53 42.8442 19.6504 43.7945 19.5969 45.0706C19.6236 46.1567 19.6504 47.0934 19.6504 48.0708Z" fill="white"/>
<path d="M19.5969 12.2179C19.5969 17.2816 19.5969 17.2816 24.5864 17.2409C25.4826 17.2409 26.3789 17.2409 27.2617 17.2409C28.4657 17.173 28.8402 17.7432 28.8135 18.8835C28.7867 20.0239 28.2249 20.3225 27.235 20.3089C25.4291 20.3089 23.6233 20.3904 21.8843 20.3089C20.1453 20.2275 19.5166 20.9606 19.6236 22.6982C19.7307 24.6531 19.6236 26.608 19.6236 28.5764C19.6236 29.6217 19.4096 30.3277 18.1522 30.3412C16.8948 30.3548 16.3597 29.9204 16.3865 28.6307C16.3865 26.4858 16.3865 24.3273 16.3865 22.1824C16.3865 20.8248 15.8782 20.2954 14.5539 20.3497C12.7614 20.3497 10.9555 20.3497 9.20318 20.3497C8.09292 20.3497 7.15655 20.3497 7.1833 18.7613C7.21005 17.173 8.02603 17.1594 9.10955 17.173C10.9689 17.173 12.8416 17.1051 14.701 17.173C15.9718 17.173 16.4132 16.6979 16.3865 15.4489C16.3865 13.2361 16.3865 11.0097 16.3865 8.79692C16.3865 7.69731 16.7075 7.07284 17.9114 7.05926C19.1153 7.04568 19.6772 7.57513 19.6103 8.82407C19.5434 10.073 19.5969 11.0369 19.5969 12.2179Z" fill="white"/>
<path d="M35.6757 70.4432C35.6757 66.452 36.0101 66.995 32.3048 66.9543H30.5792C29.6963 66.9543 29.5224 66.3977 29.5224 65.6647C29.5224 64.9316 29.6963 64.3071 30.5524 64.3071H31.3149C35.649 64.1442 35.649 64.1442 35.6757 59.6507C35.6757 59.1891 35.6757 58.7411 35.6757 58.2932C35.7426 57.2614 36.5184 57.3157 37.2274 57.3021C37.9364 57.2886 38.4982 57.5194 38.4982 58.3882C38.4982 59.8272 38.5651 61.2662 38.4982 62.6916C38.4982 63.8591 38.9262 64.375 40.09 64.3207C41.2538 64.2664 42.2704 64.3207 43.3673 64.3207C44.4642 64.3207 44.705 64.8365 44.705 65.8004C44.705 66.7643 44.1432 67.0222 43.3673 66.9815H43.18C41.7086 67.1987 39.8091 66.2077 38.846 67.5788C38.03 68.7191 38.6587 70.4975 38.5651 71.9908C38.5651 72.9275 38.8192 74.0407 37.2274 74.0272C36.2242 74.0272 35.6222 73.7692 35.6757 72.6696C35.7158 71.8687 35.6891 71.1492 35.6757 70.4432Z" fill="white"/>
<path d="M67.7531 29.7167C67.7531 31.1422 67.8601 32.5812 67.82 34.0202C67.82 35.1334 68.2614 35.5406 69.3048 35.4999C70.3482 35.4592 71.4852 35.4999 72.5821 35.4999C73.679 35.4999 74 35.785 74 36.8575C74 37.9299 73.5184 38.215 72.6623 38.215C71.1106 38.3779 69.0506 37.414 68.141 38.7987C67.4187 39.9255 67.8869 41.8397 67.82 43.3873C67.7531 44.9349 66.1211 44.4869 65.1446 44.867C64.7419 43.3684 64.6508 41.8012 64.8771 40.2649C64.8771 38.7037 64.5293 37.9571 62.8572 38.1743C61.8997 38.2422 60.9387 38.2422 59.9812 38.1743C59.8049 38.2108 59.6226 38.2039 59.4495 38.1541C59.2765 38.1042 59.1177 38.013 58.9866 37.8879C58.8555 37.7629 58.756 37.6077 58.6963 37.4355C58.6366 37.2632 58.6185 37.079 58.6435 36.8982C58.6435 35.9343 58.9913 35.4456 59.9812 35.4592C60.9711 35.4728 62.1616 35.4592 63.2451 35.4592C64.3286 35.4592 64.8637 35.0112 64.8102 33.8573C64.7567 32.7034 64.8102 31.3865 64.8102 30.1512C64.8102 29.5538 64.5828 28.7936 65.479 28.5493C66.1345 29.2009 67.325 28.6579 67.7531 29.7167Z" fill="white"/>
<path d="M36.1171 12.3808V11.9872C36.1171 8.94625 36.1171 8.94625 33.1876 8.94625C32.7462 8.94625 32.2914 8.94625 31.85 8.94625C31.141 8.94625 30.1377 9.19061 30.0976 7.99596C30.0575 6.80132 31.0206 6.96423 31.7697 6.93708C32.5188 6.90993 33.4418 6.93708 34.2712 6.93708C35.6088 7.00495 36.1706 6.44836 36.1305 5.10439C36.0904 3.76041 36.1305 2.49789 36.1305 1.19464C36.1305 0.54302 36.3713 0.0271518 37.1204 0.0135763C37.8695 8.2777e-07 38.0969 0.529445 38.1103 1.16749C38.1103 2.52504 38.1103 3.78756 38.1103 5.07723C38.1103 6.36691 38.6453 6.99138 39.9563 6.93708C40.9729 6.93708 42.0029 6.93708 43.0329 6.93708C43.6616 6.93708 44.1833 7.16786 44.1833 7.94166C44.1833 8.71547 43.675 8.9191 43.0329 8.9191C42.0029 8.9191 40.9729 9.00055 39.9429 8.9191C38.6052 8.83765 38.0568 9.36709 38.1103 10.7246C38.1638 12.0822 38.1103 13.1954 38.1103 14.4443C38.1103 15.1367 38.0033 15.8019 37.1204 15.8019C36.2375 15.8019 36.0904 15.191 36.077 14.4443V12.3808H36.1171Z" fill="white"/>
<path d="M6.04628 37.9299H1.25742C0.548451 37.9299 -0.0133716 37.7127 5.11037e-06 36.8439C0.0133818 35.975 0.494944 35.69 1.23066 35.6764C2.31418 35.6764 3.39769 35.6085 4.49458 35.6764C5.59147 35.7443 6.12654 35.1469 6.11317 33.9387C6.09979 32.7305 6.11317 31.4816 6.11317 30.2462C6.11317 29.4317 6.40745 28.8886 7.34382 28.8886C8.28019 28.8886 8.36045 29.5267 8.36045 30.2462V35.5678C8.61461 35.8664 9.09617 35.7035 9.32358 36.0429C9.42222 36.254 9.45205 36.4915 9.40876 36.7209C9.36547 36.9504 9.25129 37.1599 9.0828 37.319C8.40058 37.672 7.61136 37.6313 6.9559 38.0385C6.808 38.1212 6.64309 38.1677 6.47434 38.1743C6.30791 38.1461 6.15646 38.0596 6.04628 37.9299V37.9299Z" fill="white"/>
<path d="M54.2961 53.2024C54.5417 50.4081 54.5774 47.5989 54.4031 44.7991C54.4031 43.1293 55.0586 42.9393 56.423 42.9121C58.0951 42.9121 57.9479 43.8353 57.7607 44.9213L57.3727 45.315C57.0372 45.567 56.7728 45.9041 56.6061 46.2924C56.4395 46.6808 56.3763 47.1068 56.423 47.5278C56.3449 49.0807 56.4346 50.6376 56.6905 52.1706C56.8467 52.7019 56.8869 53.2613 56.8084 53.8099C56.7299 54.3585 56.5344 54.8831 56.2357 55.3473C55.2592 56.4605 54.3095 55.9175 53.3597 55.3473C53.2443 55.1361 53.1917 54.8954 53.2084 54.6544C53.225 54.4135 53.3101 54.1826 53.4534 53.9897C53.6808 53.6368 54.0821 53.5146 54.2961 53.2024Z" fill="white"/>
<path d="M55.0719 66.1126C54.0821 65.8954 54.4967 65.0673 54.4834 64.5243C54.4834 62.3115 54.4031 60.0987 54.4834 57.8859C54.4834 56.6098 54.0152 56.2025 52.7979 56.1754C50.3767 56.1075 47.9422 56.5148 45.5343 55.9446C45.6416 55.7826 45.7843 55.648 45.9515 55.5514C46.1186 55.4549 46.3055 55.3989 46.4975 55.388C48.9194 55.2657 51.3468 55.3202 53.761 55.5509C54.8847 55.7274 55.7274 55.9446 55.0987 57.5465C54.5636 58.9041 55.0184 60.3702 54.9248 61.5106C55.2726 60.153 54.2426 58.3067 55.6338 56.8134C55.743 56.6872 55.8795 56.5884 56.0327 56.5248C56.1859 56.4612 56.3516 56.4345 56.5166 56.4469C56.8307 56.5019 57.1151 56.6688 57.3187 56.9177C57.5222 57.1666 57.6315 57.481 57.6269 57.8044C57.6269 60.0308 57.6269 62.2436 57.6269 64.47C57.6256 64.5987 57.5868 64.724 57.5154 64.8303C57.4439 64.9366 57.3431 65.0191 57.2256 65.0673C55.4599 64.3207 56.7039 62.7323 56.3026 61.7821C56.423 62.6645 56.0351 63.7912 56.6103 64.8094C56.9848 65.2302 57.0517 65.6239 56.3962 65.7868C55.9147 65.9226 55.4465 65.8004 55.0719 66.1126Z" fill="white"/>
<path d="M55.8478 57.1257C54.684 58.3067 55.1656 59.8408 55.0853 61.1983C55.1043 62.1678 54.9963 63.1356 54.7643 64.0763C54.7643 61.9585 54.6707 59.8272 54.7643 57.723C54.8445 56.3654 54.363 55.931 53.1591 55.931H45.4808C45.1197 53.2159 45.1197 53.2159 47.7281 53.2159H54.256L54.684 53.7318L53.8814 54.0033C52.4234 55.1708 50.7513 54.302 49.4537 54.6006C50.5908 54.94 52.2093 53.9354 53.4667 55.1844C54.2292 54.8857 55.0051 55.6052 55.7809 55.1844C56.5701 55.8224 56.1822 56.474 55.8478 57.1257Z" fill="white"/>
<path d="M57.8543 53.0666L64.5427 53.1752C67.218 53.1752 67.218 53.1752 66.9237 55.8903C64.1114 56.1141 61.2892 56.1821 58.4696 56.0939C57.9529 56.1281 57.4346 56.1281 56.9179 56.0939C55.9548 55.2794 56.8377 54.4649 56.9179 53.6639C56.9992 53.4822 57.1312 53.3287 57.2977 53.2225C57.4642 53.1163 57.6577 53.0621 57.8543 53.0666Z" fill="white"/>
<path d="M6.44758 37.9163V37.5362C6.60291 37.4252 6.77977 37.3489 6.9664 37.3127C7.15302 37.2764 7.34512 37.2809 7.5299 37.3258C7.71468 37.3708 7.8879 37.4552 8.03803 37.5734C8.18816 37.6916 8.31175 37.8409 8.40058 38.0114C8.40058 39.6269 8.32032 41.2559 8.40058 42.8578C8.48084 44.4597 7.83876 44.7991 6.44758 44.5276C6.13987 42.3349 6.13987 40.109 6.44758 37.9163V37.9163Z" fill="white"/>
<path d="M8.76175 37.1561L9.14967 35.9886C10.9171 35.644 12.733 35.644 14.5004 35.9886C14.7813 37.3462 14.3131 37.9435 12.962 37.9028C11.611 37.862 10.1931 37.9028 8.80188 37.9028C8.74142 37.8633 8.69106 37.8098 8.65492 37.7467C8.61878 37.6836 8.5979 37.6127 8.59398 37.5398C8.59007 37.467 8.60323 37.3942 8.63239 37.3275C8.66156 37.2608 8.70589 37.2021 8.76175 37.1561V37.1561Z" fill="white"/>
<path d="M57.8543 53.0666L57.3861 53.9897C56.5701 54.0712 56.5166 53.501 56.4096 52.9037C56.2 50.7339 56.1509 48.5512 56.2625 46.3739C56.2625 45.6001 56.8511 45.315 57.3861 45.0163H57.774L57.8543 53.0666Z" fill="white"/>
<path d="M56.9982 55.9446H57.774C58.055 56.0532 58.055 56.1618 57.774 56.284C57.774 58.7276 57.8409 61.1712 57.8409 63.6148C57.8409 66.3299 57.8409 66.3299 55.0719 66.1126C55.2325 65.2438 56.4096 65.8411 56.6236 64.9587C58.1218 63.3432 57.132 61.3748 57.3594 59.5285C57.5065 58.4425 57.5199 57.2614 56.2357 56.6777C55.9949 56.1482 55.7809 55.4966 56.3561 55.1708C56.9313 54.845 56.7307 55.741 56.9982 55.9446Z" fill="white"/>
<path d="M57.774 56.284C57.7601 56.1713 57.7601 56.0573 57.774 55.9446H66.8836C63.9006 56.5826 60.8106 55.9446 57.774 56.284Z" fill="white"/>
<path d="M65.1179 44.8942C65.265 44.3376 65.1179 43.333 66.2014 44.1611C67.2849 44.9892 66.9237 43.0207 67.7531 43.4144C67.9805 45.953 66.2415 44.867 65.1179 44.8942Z" fill="white"/>
<path d="M6.44758 37.9164V44.5276C5.69849 42.3691 6.32719 40.1292 6.04628 37.9299L6.44758 37.9164Z" fill="white"/>
<path d="M67.7531 29.7167C67.1511 29.9475 66.6562 29.3638 65.9874 29.5403C65.3185 29.7167 65.3988 29.0515 65.4924 28.59C66.3485 28.7393 67.7665 27.7483 67.7531 29.7167Z" fill="white"/>
<path d="M8.76176 37.1561V37.8756L8.40059 38.0114L6.44759 37.5905C6.24694 36.7353 6.56798 36.3009 7.41071 36.6267C7.85214 36.7489 8.22669 37.129 8.76176 37.1561Z" fill="white"/>
<path d="M14.4602 35.9751H9.10954L8.33369 35.5542C10.3937 35.8665 12.4805 35.2148 14.4602 35.9751Z" fill="white"/>
<path d="M56.9982 55.9446C55.8612 55.3065 56.4096 56.379 56.2357 56.7184L55.8478 57.1257V55.1708C56.3695 52.4557 55.5669 49.8764 55.8478 47.2291C55.9281 46.3875 55.8478 45.5458 55.8478 44.6226L57.3861 44.9756C56.7841 46.3997 56.4736 47.9331 56.4736 49.4827C56.4736 51.0323 56.7841 52.5657 57.3861 53.9897L56.9982 55.9446Z" fill="white"/>
<path d="M53.5069 55.1708C51.5271 55.1708 49.4939 55.1708 47.5676 55.2794C46.9389 55.2794 46.2299 55.198 46.2299 54.5192C46.2299 53.8404 47.0058 53.8133 47.5676 53.8268L53.8814 53.9897L53.5069 55.1708Z" fill="white"/>
<path d="M56.6905 65.1624C55.2325 63.031 56.1287 60.9404 56.1153 58.9448C56.8644 60.9268 56.4631 62.9631 56.6905 65.1624Z" fill="white"/>
<path d="M58.4696 54.5192C58.6161 54.2341 58.8525 54.0069 59.141 53.8741C59.4295 53.7412 59.7536 53.7102 60.0615 53.7861C61.3991 53.8811 62.7368 53.8947 64.0745 54.0033C64.7166 54.0033 65.8268 53.6911 65.7867 54.6142C65.7466 55.5373 64.6363 55.1165 63.9808 55.1436C62.121 55.3261 60.2441 55.1134 58.4696 54.5192V54.5192Z" fill="white"/>
</g>
<defs>
<clipPath id="clip0_42_200">
<rect width="74" height="74" fill="white"/>
</clipPath>
</defs>
</svg>
