<svg width="483" height="336" viewBox="0 0 483 336" fill="none" xmlns="http://www.w3.org/2000/svg">
<g clip-path="url(#clip0_1_7)">
<path d="M329.761 0H284.828V45.0097H329.761V0Z" fill="#41A8FB"/>
<path d="M477.665 44.9174H432.55V90.1094H477.665V44.9174Z" fill="#41A8FB"/>
<path d="M419.622 90.016H374.689V135.026H419.622V90.016Z" fill="#3AD6FC"/>
<path d="M419.622 0H374.689V45.0097H419.622V0Z" fill="#00E7C5"/>
<path d="M374.69 45.0093H329.757V90.0192H374.69V45.0093Z" fill="#3975F4"/>
<path d="M329.761 90.016H284.828V135.026H329.761V90.016Z" fill="#00E7C5"/>
<path d="M83.9568 117.878L17.8741 91.1977C31.4949 64.5841 52.1834 42.2519 77.6616 26.6605C103.139 11.069 132.419 2.82307 162.275 2.83069V73.6962C146.527 73.6793 131.042 77.7382 117.32 85.4788C103.599 93.2199 92.1066 104.38 83.9568 117.878Z" fill="#3975F4"/>
<path d="M160.672 257.028V327.844C134.184 327.583 108.163 320.83 84.881 308.176C61.5985 295.521 41.7628 277.35 27.1057 255.248C12.4485 233.146 3.4156 207.785 0.79569 181.382C-1.82422 154.977 2.04851 128.332 12.0757 103.773L77.6961 130.234C71.9907 144.042 69.7397 159.038 71.1385 173.916C72.5373 188.795 77.5445 203.105 85.7231 215.604C93.9023 228.101 105.006 238.409 118.068 245.629C131.13 252.848 145.755 256.761 160.672 257.028Z" fill="#3975F4"/>
<path d="M324.484 165.372C324.483 206.356 309.027 245.826 281.209 275.879C253.391 305.931 215.266 324.346 174.47 327.436V256.213C196.425 253.252 216.561 242.413 231.142 225.707C245.723 209.001 253.758 187.563 253.756 165.372H324.484Z" fill="#3975F4"/>
<path d="M183.049 94.5169V165.363H253.773V94.5169H183.049Z" fill="#3975F4"/>
</g>
<defs>
<clipPath id="clip0_1_7">
<rect width="483" height="336" fill="white"/>
</clipPath>
</defs>
</svg>
