<svg width="64" height="64" viewBox="0 0 64 64" fill="none" xmlns="http://www.w3.org/2000/svg">
<g clip-path="url(#clip0_9_73)">
<path d="M64 36.5481C64 41.5612 63.903 46.5742 64 51.5872C64.1358 57.0795 59.5685 59.4279 54.914 58.0764C53.3624 57.6259 51.8303 57.1179 50.3079 56.6578C49.3382 56.3319 48.7079 55.5747 49.2703 54.7407C49.5145 54.4776 49.8159 54.2727 50.1519 54.1416C50.4878 54.0104 50.8495 53.9564 51.2097 53.9835C52.8485 54.2711 54.4097 54.8845 56.0582 55.3159C58.7055 56.0156 60.8485 54.6161 60.9067 51.9994C60.9649 41.5133 60.9067 31.0367 60.9067 20.5601C60.9414 19.7386 60.6781 18.9317 60.1643 18.285C59.6505 17.6383 58.9199 17.1943 58.1043 17.0328C41.9944 12.3872 25.9265 7.7416 9.90062 3.096C7.11759 2.30044 5.21698 3.83406 5.18789 6.79587C5.18789 11.9143 5.18789 17.0424 5.18789 22.1321V27.5956C5.18789 28.6117 4.90668 29.5127 3.69456 29.5127C2.48244 29.5127 2.10425 28.6117 2.11395 27.5189C2.11395 20.5122 2.11395 13.5055 2.11395 6.49873C2.11395 1.82118 6.15759 -1.09271 10.8412 0.249214C21.3915 3.31646 31.8933 6.39329 42.4049 9.44137C47.7188 10.975 53.0327 12.515 58.3467 14.0614C62.3709 15.2308 64 17.2533 64 21.3365C64 26.4071 64 31.4776 64 36.5481Z" fill="black"/>
<path d="M36.024 42.9031C36.024 37.43 35.9367 31.9664 36.0822 26.5029C36.1185 25.1591 36.6102 23.8663 37.4786 22.8318C39.4761 20.7327 43.2967 21.7774 44.0919 24.5092C44.267 25.1689 44.3454 25.85 44.3246 26.5317C44.3246 37.2287 44.3246 47.9321 44.3246 58.6419C44.3279 59.619 44.1707 60.5901 43.8592 61.5174C43.2095 63.4345 41.7937 64.1821 39.3598 64C38.5349 63.9387 37.7593 63.5883 37.1726 63.0119C36.5859 62.4355 36.2268 61.671 36.1598 60.8561C36.0353 59.3257 35.9932 57.7899 36.0337 56.2552C36.0143 51.7598 36.024 47.341 36.024 42.9031Z" fill="black"/>
<path d="M32.3682 42.5772C32.3682 46.5071 32.3682 50.437 32.3682 54.3669C32.38 54.9373 32.3475 55.5076 32.2712 56.0731C31.8446 58.6419 30.0312 60.1947 27.733 60.0126C25.4349 59.8305 24.0967 58.2297 24.0967 55.5363C24.0967 47.2292 24.0967 38.9221 24.0967 30.6149C24.0967 27.9599 25.784 26.1674 28.1985 26.1195C30.613 26.0716 32.3488 27.7969 32.3682 30.6437C32.3876 34.6024 32.3682 38.5898 32.3682 42.5772Z" fill="black"/>
<path d="M20.2958 43.0181C20.2958 45.6828 20.2958 48.357 20.2958 51.0217C20.2958 53.6864 18.6182 55.4117 16.1552 55.4309C13.6922 55.4501 12.0243 53.8493 12.0049 51.0888C12.0049 45.6924 12.0049 40.2959 12.0049 34.8995C12.0049 32.2252 13.7115 30.4903 16.1358 30.4712C18.56 30.452 20.2473 32.1486 20.2958 34.8324C20.3443 37.5162 20.2958 40.2576 20.2958 43.0181Z" fill="black"/>
<path d="M0.0483741 43.1332V38.5323C0.00933335 38.014 0.0797716 37.4934 0.255214 37.0034C0.430656 36.5135 0.707268 36.065 1.06748 35.6864C1.42768 35.3078 1.86361 35.0074 2.34757 34.8043C2.83153 34.6012 3.35294 34.4998 3.87868 34.5065C4.94518 34.4462 5.99252 34.8055 6.79194 35.5059C7.59137 36.2063 8.07792 37.1909 8.14534 38.2447C8.23262 39.2608 8.14534 40.2864 8.14534 41.312C8.14534 43.4686 8.20352 45.6349 8.14534 47.7915C8.1342 48.5775 7.87891 49.3412 7.41406 49.979C6.94922 50.6167 6.29728 51.0979 5.54656 51.3572C4.86854 51.6804 4.10684 51.7912 3.36339 51.6747C2.61994 51.5582 1.93022 51.22 1.38656 50.7054C0.696263 49.9775 0.249364 49.0572 0.106556 48.0695C-0.014352 46.4268 -0.033782 44.7783 0.0483741 43.1332V43.1332Z" fill="black"/>
</g>
<defs>
<clipPath id="clip0_9_73">
<rect width="64" height="64" fill="white"/>
</clipPath>
</defs>
</svg>
