<svg width="55" height="49" viewBox="0 0 55 49" fill="none" xmlns="http://www.w3.org/2000/svg">
<path d="M54.8994 43.1193C54.8791 43.0415 54.8547 42.965 54.8262 42.8899V42.8899C54.8262 42.8257 54.8262 42.7615 54.7713 42.6881L54.7164 42.5321C54.711 42.5111 54.711 42.489 54.7164 42.4679V42.3945C51.2943 36.4587 47.8997 30.4679 44.4593 24.5872C44.2966 24.3651 44.2088 24.0967 44.2088 23.8211C44.2088 23.5455 44.2966 23.2771 44.4593 23.055C46.5181 19.5505 48.5402 16.0184 50.5806 12.4954C50.7453 12.2018 50.9283 11.9174 51.1937 11.4679C51.3858 12.1376 51.5231 12.6606 51.6695 13.1835C52.2551 15.2844 53.4079 15.6422 54.9085 14.2294V14.1835V14.1009C54.9341 14.0226 54.9555 13.943 54.9726 13.8624C54.9726 13.8624 54.9726 13.789 54.9726 13.7523V13.1927L54.9177 12.8807C54.9177 12.7982 54.9177 12.7156 54.8536 12.6422C54.7896 12.4128 54.7347 12.1743 54.6798 11.945V11.7431C54.6454 11.6725 54.6178 11.5988 54.5974 11.5229C54.1582 9.92661 53.7465 8.32111 53.2981 6.7156C53.2633 6.51171 53.1876 6.31701 53.0757 6.14324C52.9638 5.96946 52.818 5.82021 52.647 5.70448C52.476 5.58874 52.2834 5.50893 52.0808 5.46985C51.8782 5.43077 51.6698 5.43322 51.4682 5.47707C49.3088 6.01835 47.1586 6.58716 45.0632 7.20184C44.8544 7.24808 44.6574 7.33724 44.4847 7.4637C44.312 7.59016 44.1674 7.75116 44.0599 7.93653C43.9524 8.1219 43.8844 8.32761 43.8602 8.54067C43.8361 8.75372 43.8563 8.96948 43.9195 9.17432C43.9727 9.38354 44.0682 9.57958 44.2001 9.75031C44.3319 9.92103 44.4973 10.0628 44.686 10.1669C44.8747 10.2709 45.0827 10.3351 45.2971 10.3553C45.5115 10.3755 45.7277 10.3514 45.9325 10.2844L48.3115 9.6789L42.0895 20.4404C41.8425 20.0367 41.6869 19.7982 41.5497 19.5229C38.3106 13.9083 35.0655 8.28747 31.8142 2.66056C31.4131 1.86645 30.8016 1.1985 30.0467 0.73005C29.2918 0.2616 28.4228 0.0107609 27.5351 0.00507328C26.6473 -0.000614321 25.7752 0.239069 25.0144 0.697809C24.2536 1.15655 23.6336 1.81661 23.2225 2.60551C15.5853 15.8288 7.95739 29.0581 0.338578 42.2936C0.338578 42.3853 0.265379 42.4771 0.21963 42.5688C0.176339 42.6725 0.142648 42.78 0.118981 42.8899C0.0933574 42.9713 0.0719787 43.054 0.0549316 43.1376V45.1101C0.13596 45.2482 0.206315 45.3924 0.265379 45.5413C0.569262 46.5558 1.19642 47.4424 2.0508 48.0655C2.90518 48.6885 3.93968 49.0135 4.99587 48.9908H10.3211C10.6048 49.0063 10.8891 48.9753 11.1629 48.8991C11.5281 48.7714 11.8345 48.5147 12.0248 48.177C12.215 47.8394 12.2762 47.4438 12.1968 47.0642C12.1224 46.6799 11.9119 46.3355 11.6042 46.0944C11.2965 45.8533 10.9124 45.7318 10.5224 45.7523C8.62838 45.7523 6.73435 45.7523 4.84947 45.7523C4.57671 45.7585 4.30707 45.6931 4.0673 45.5626C3.82753 45.4321 3.62597 45.2409 3.48262 45.0082C3.33927 44.7754 3.25911 44.5091 3.25009 44.2357C3.24108 43.9623 3.30353 43.6913 3.43124 43.4495C3.49691 43.2797 3.57331 43.1142 3.65999 42.9541L17.0005 19.8807C19.9956 14.6942 22.9907 9.49542 25.9857 4.28441C26.8184 2.86239 28.1634 2.87156 29.0143 4.28441L29.1882 4.58716C32.354 10.0917 35.5169 15.5963 38.6766 21.1009C39.1799 21.9725 40.0583 22.844 40.0583 23.7156C40.0583 24.5872 39.1982 25.5505 38.6858 26.4128C37.4231 28.6147 36.1421 30.8165 34.8154 33.1193C34.6049 32.789 34.4494 32.5505 34.3121 32.3119C33.0128 30.0826 31.6312 27.8991 30.46 25.6055C30.1745 25.0683 29.7486 24.6189 29.2281 24.3056C28.7075 23.9923 28.1118 23.8268 27.5046 23.8268C26.8974 23.8268 26.3017 23.9923 25.7811 24.3056C25.2606 24.6189 24.8347 25.0683 24.5492 25.6055C23.1401 28.2936 21.5297 30.8716 19.9742 33.5046C18.4188 36.1376 16.7626 39.0092 15.2255 41.7615C14.8142 42.4815 14.5951 43.2957 14.5892 44.1254C14.5833 44.9551 14.7909 45.7724 15.192 46.4982C15.593 47.224 16.1739 47.8338 16.8786 48.2689C17.5832 48.7039 18.3879 48.9494 19.2148 48.9817C29.5816 48.9817 39.9485 48.9817 50.3244 48.9817C50.9034 49.0132 51.4822 48.9151 52.0187 48.6946C52.5552 48.474 53.036 48.1365 53.4262 47.7064C53.9109 47.0904 54.3367 46.43 54.6981 45.7339C54.7341 45.6124 54.7769 45.4929 54.8262 45.3761V45.3761C54.8224 45.3426 54.8224 45.3088 54.8262 45.2752L54.8902 45.1101C54.893 45.0704 54.893 45.0305 54.8902 44.9908C54.8902 45.0551 54.8902 45.0459 54.8902 44.9908C54.8902 44.9358 54.8902 44.789 54.8902 44.6881C54.8902 44.5872 54.8902 44.3395 54.8902 44.1651C54.9153 43.8171 54.9184 43.4677 54.8994 43.1193V43.1193ZM50.0316 45.6973H19.5625C19.2741 45.7305 18.9822 45.6812 18.7205 45.5551C18.4589 45.4289 18.2382 45.231 18.0841 44.9843C17.93 44.7376 17.8487 44.4522 17.8496 44.1611C17.8505 43.87 17.9337 43.5851 18.0894 43.3395C21.1637 37.9358 24.293 32.5688 27.4955 27.0092L31.2744 33.5229L31.9149 34.6422C32.1856 35.1699 32.5961 35.6125 33.1014 35.9216C33.6066 36.2306 34.1869 36.3941 34.7788 36.3941C35.3706 36.3941 35.951 36.2306 36.4562 35.9216C36.9614 35.6125 37.3719 35.1699 37.6427 34.6422C39.0243 32.3211 40.3876 29.9725 41.6961 27.6422L42.117 26.9725L44.7796 31.5596C46.9512 35.3639 49.1044 39.1376 51.2394 42.8807C51.3309 43.0275 51.4224 43.1743 51.4956 43.3211C51.6416 43.5662 51.7186 43.8464 51.7183 44.1319C51.718 44.4173 51.6405 44.6974 51.494 44.9422C51.3475 45.187 51.1376 45.3873 50.8865 45.5219C50.6354 45.6565 50.3526 45.7203 50.0682 45.7064L50.0316 45.6973Z" fill="black"/>
</svg>
