<svg width="74" height="74" viewBox="0 0 74 74" fill="none" xmlns="http://www.w3.org/2000/svg">
<g clip-path="url(#clip0_9_82)">
<path d="M38.953 29.3095C38.953 30.667 38.953 31.9295 38.953 33.2192C38.953 34.5089 39.4078 34.8347 40.5582 34.8075C42.9393 34.8075 45.3204 34.8075 47.688 34.8075C49.0257 34.8075 49.3601 35.3913 49.32 36.5723C49.2799 37.7534 49.4671 38.8802 47.7549 38.8394C45.628 38.8394 43.5011 38.9616 41.3876 38.8394C39.2741 38.7173 38.7925 39.3689 38.9129 41.3373C39.0601 43.6859 38.9129 46.0345 38.9129 48.383C38.9798 50.0528 38.0167 50.0528 36.8128 50.0935C35.6089 50.1343 34.8865 49.8627 34.9266 48.3966C35.0069 45.7901 34.9266 43.17 34.9266 40.5635C34.9266 39.206 34.405 38.7444 33.1074 38.7851C30.927 38.853 28.7332 38.7851 26.5528 38.7851C24.9744 38.7851 24.8139 37.9706 24.8005 36.6945C24.7871 35.4184 25.0814 34.6446 26.6197 34.7261C28.7332 34.8483 30.8601 34.6582 32.9736 34.7261C34.5655 34.8211 34.9802 34.1695 34.9266 32.6897C34.833 30.219 34.9266 27.7347 34.9266 25.2504C34.8598 23.6756 35.6624 23.4584 36.9332 23.4313C38.2039 23.4041 39.0065 23.7842 38.9129 25.3047C38.8862 26.703 38.953 28.0062 38.953 29.3095Z" fill="black"/>
<path d="M57.8543 12.1365C57.8543 17.173 57.8543 17.173 62.8171 17.173C63.6598 17.173 64.4892 17.173 65.3319 17.173C66.1746 17.173 67.0575 17.3087 67.0709 18.6256C67.0842 19.9424 66.6161 20.3632 65.372 20.3632C63.6999 20.3632 62.0278 20.3632 60.3558 20.3632C57.8677 20.3632 57.8677 20.3632 57.8543 22.9969C57.8543 24.816 57.8543 26.6487 57.8543 28.4271C57.8543 29.6489 57.4396 30.1783 56.1822 30.1919C54.9248 30.2055 54.3362 29.6896 54.363 28.3592C54.363 26.2686 54.363 24.1779 54.363 22.1009C54.363 20.7433 53.8413 20.2546 52.5304 20.2953C50.671 20.3632 48.7983 20.2953 46.9389 20.2953C45.8153 20.2953 45.3069 19.9152 45.3203 18.707C45.3337 17.4988 45.842 17.1051 46.9657 17.1323C48.8919 17.1323 50.8182 17.1323 52.7444 17.1323C53.8948 17.1323 54.3764 16.6707 54.363 15.5168C54.363 13.3718 54.363 11.2133 54.363 9.06842C54.363 7.71087 54.6974 7.00494 56.1822 7.00494C57.667 7.00494 57.9212 7.72445 57.8677 8.97339C57.8142 10.0459 57.8543 11.0912 57.8543 12.1365Z" fill="black"/>
<path d="M19.6503 48.0708C19.6503 53.1752 19.6503 53.1752 24.6399 53.1752C25.4826 53.1752 26.3119 53.1752 27.1413 53.1752C27.9707 53.1752 28.8803 53.1752 28.8803 54.5328C28.8803 55.8903 28.4388 56.2433 27.2082 56.2025C25.2819 56.2025 23.3557 56.2025 21.4294 56.2025C20.0918 56.2025 19.5701 56.6098 19.6236 57.9945C19.7172 60.2752 19.6236 62.5559 19.6236 64.7823C19.6236 66.1398 18.9012 66.1398 17.898 66.1398C16.8947 66.1398 16.1323 66.1398 16.159 64.7823C16.159 62.4473 16.159 60.0987 16.159 57.7502C16.159 56.5691 15.7443 56.1075 14.5939 56.1347C12.7346 56.1347 10.8618 56.1347 9.00247 56.1347C7.8922 56.1347 7.03609 56.1347 7.04947 54.5328C7.06285 52.9308 7.91896 53.1073 8.92221 53.1073C10.8485 53.1073 12.7747 53.1073 14.701 53.1073C15.7845 53.1073 16.1724 52.6865 16.159 51.614C16.159 49.4012 16.159 47.1884 16.159 44.9756C16.159 43.7402 16.159 42.9257 17.8445 42.885C19.53 42.8443 19.6503 43.7945 19.5968 45.0706C19.6236 46.1567 19.6503 47.0934 19.6503 48.0708Z" fill="black"/>
<path d="M19.5968 12.2179C19.5968 17.2816 19.5968 17.2816 24.5863 17.2408C25.4825 17.2408 26.3788 17.2408 27.2616 17.2408C28.4655 17.173 28.8401 17.7431 28.8133 18.8835C28.7866 20.0238 28.2248 20.3225 27.2349 20.3089C25.429 20.3089 23.6232 20.3903 21.8842 20.3089C20.1452 20.2274 19.5165 20.9605 19.6235 22.6982C19.7305 24.653 19.6235 26.6079 19.6235 28.5764C19.6235 29.6217 19.4095 30.3276 18.1521 30.3412C16.8947 30.3548 16.3596 29.9203 16.3864 28.6307C16.3864 26.4857 16.3864 24.3272 16.3864 22.1823C16.3864 20.8248 15.878 20.2953 14.5537 20.3496C12.7613 20.3496 10.9554 20.3496 9.20306 20.3496C8.09279 20.3496 7.15642 20.3496 7.18318 18.7613C7.20993 17.173 8.02591 17.1594 9.10942 17.173C10.9688 17.173 12.8415 17.1051 14.7009 17.173C15.9717 17.173 16.4131 16.6978 16.3864 15.4489C16.3864 13.2361 16.3864 11.0097 16.3864 8.79688C16.3864 7.69726 16.7074 7.07279 17.9113 7.05921C19.1152 7.04564 19.677 7.57508 19.6101 8.82403C19.5433 10.073 19.5968 11.0368 19.5968 12.2179Z" fill="black"/>
<path d="M35.6758 70.4432C35.6758 66.452 36.0102 66.995 32.3048 66.9543H30.5792C29.6964 66.9543 29.5225 66.3977 29.5225 65.6646C29.5225 64.9316 29.6964 64.3071 30.5525 64.3071H31.3149C35.649 64.1442 35.649 64.1442 35.6758 59.6507C35.6758 59.1891 35.6758 58.7411 35.6758 58.2931C35.7426 57.2614 36.5185 57.3157 37.2275 57.3021C37.9364 57.2886 38.4982 57.5193 38.4982 58.3882C38.4982 59.8272 38.5651 61.2662 38.4982 62.6916C38.4982 63.8591 38.9263 64.375 40.0901 64.3207C41.2538 64.2664 42.2705 64.3207 43.3674 64.3207C44.4643 64.3207 44.705 64.8365 44.705 65.8004C44.705 66.7643 44.1432 67.0222 43.3674 66.9815H43.1801C41.7087 67.1987 39.8092 66.2077 38.846 67.5788C38.0301 68.7191 38.6588 70.4975 38.5651 71.9908C38.5651 72.9275 38.8193 74.0407 37.2275 74.0271C36.2242 74.0271 35.6222 73.7692 35.6758 72.6696C35.7159 71.8686 35.6891 71.1491 35.6758 70.4432Z" fill="black"/>
<path d="M67.7531 29.7167C67.7531 31.1422 67.8601 32.5812 67.82 34.0202C67.82 35.1334 68.2614 35.5406 69.3048 35.4999C70.3482 35.4592 71.4852 35.4999 72.5821 35.4999C73.679 35.4999 74 35.785 74 36.8575C74 37.9299 73.5184 38.215 72.6623 38.215C71.1106 38.3779 69.0506 37.414 68.141 38.7987C67.4186 39.9255 67.8868 41.8397 67.82 43.3873C67.7531 44.9349 66.1211 44.4869 65.1446 44.867C64.7419 43.3684 64.6508 41.8012 64.8771 40.2649C64.8771 38.7037 64.5293 37.9571 62.8572 38.1743C61.8997 38.2422 60.9387 38.2422 59.9812 38.1743C59.8049 38.2108 59.6226 38.2039 59.4495 38.1541C59.2765 38.1042 59.1177 38.013 58.9866 37.8879C58.8555 37.7629 58.756 37.6077 58.6963 37.4355C58.6365 37.2632 58.6185 37.079 58.6435 36.8982C58.6435 35.9343 58.9913 35.4456 59.9812 35.4592C60.9711 35.4728 62.1616 35.4592 63.2451 35.4592C64.3286 35.4592 64.8637 35.0112 64.8102 33.8573C64.7567 32.7034 64.8102 31.3865 64.8102 30.1512C64.8102 29.5538 64.5828 28.7936 65.479 28.5493C66.1345 29.2009 67.325 28.6579 67.7531 29.7167Z" fill="black"/>
<path d="M36.1172 12.3808V11.9871C36.1172 8.94623 36.1172 8.94623 33.1877 8.94623C32.7462 8.94623 32.2914 8.94623 31.85 8.94623C31.141 8.94623 30.1378 9.19059 30.0976 7.99595C30.0575 6.80131 31.0206 6.96421 31.7697 6.93706C32.5188 6.90991 33.4418 6.93706 34.2712 6.93706C35.6089 7.00494 36.1707 6.44834 36.1305 5.10437C36.0904 3.7604 36.1305 2.49788 36.1305 1.19463C36.1305 0.543005 36.3713 0.0271365 37.1204 0.0135611C37.8695 -1.4431e-05 38.0969 0.52943 38.1103 1.16748C38.1103 2.52503 38.1103 3.78755 38.1103 5.07722C38.1103 6.36689 38.6454 6.99136 39.9563 6.93706C40.9729 6.93706 42.0029 6.93706 43.0329 6.93706C43.6616 6.93706 44.1833 7.16784 44.1833 7.94165C44.1833 8.71545 43.675 8.91908 43.0329 8.91908C42.0029 8.91908 40.9729 9.00054 39.9429 8.91908C38.6052 8.83763 38.0568 9.36707 38.1103 10.7246C38.1638 12.0822 38.1103 13.1954 38.1103 14.4443C38.1103 15.1367 38.0033 15.8019 37.1204 15.8019C36.2376 15.8019 36.0904 15.191 36.077 14.4443V12.3808H36.1172Z" fill="black"/>
<path d="M6.04627 37.9299H1.2574C0.548435 37.9299 -0.0133869 37.7127 -1.01484e-05 36.8438C0.0133666 35.975 0.494928 35.6899 1.23065 35.6764C2.31416 35.6764 3.39768 35.6085 4.49457 35.6764C5.59146 35.7442 6.12653 35.1469 6.11315 33.9387C6.09977 32.7305 6.11315 31.4815 6.11315 30.2462C6.11315 29.4316 6.40744 28.8886 7.34381 28.8886C8.28018 28.8886 8.36044 29.5267 8.36044 30.2462V35.5678C8.6146 35.8664 9.09616 35.7035 9.32356 36.0429C9.4222 36.254 9.45204 36.4914 9.40874 36.7209C9.36545 36.9503 9.25128 37.1598 9.08278 37.319C8.40057 37.672 7.61134 37.6312 6.95588 38.0385C6.80798 38.1212 6.64307 38.1677 6.47432 38.1742C6.30789 38.146 6.15645 38.0596 6.04627 37.9299V37.9299Z" fill="black"/>
<path d="M54.2961 53.2023C54.5416 50.4081 54.5774 47.5989 54.4031 44.7991C54.4031 43.1293 55.0585 42.9393 56.423 42.9121C58.0951 42.9121 57.9479 43.8352 57.7606 44.9213L57.3727 45.315C57.0372 45.567 56.7728 45.904 56.6061 46.2924C56.4394 46.6808 56.3763 47.1068 56.423 47.5278C56.3449 49.0807 56.4346 50.6375 56.6905 52.1706C56.8467 52.7018 56.8869 53.2612 56.8084 53.8098C56.7298 54.3585 56.5344 54.8831 56.2357 55.3473C55.2592 56.4604 54.3094 55.9174 53.3597 55.3473C53.2443 55.136 53.1917 54.8954 53.2083 54.6544C53.2249 54.4135 53.31 54.1826 53.4533 53.9897C53.6807 53.6367 54.082 53.5146 54.2961 53.2023Z" fill="black"/>
<path d="M55.072 66.1126C54.0821 65.8954 54.4968 65.0673 54.4834 64.5243C54.4834 62.3115 54.4032 60.0987 54.4834 57.8859C54.4834 56.6098 54.0153 56.2025 52.798 56.1754C50.3768 56.1075 47.9422 56.5148 45.5344 55.9446C45.6416 55.7826 45.7844 55.648 45.9515 55.5514C46.1186 55.4549 46.3055 55.3989 46.4975 55.388C48.9194 55.2657 51.3469 55.3202 53.7611 55.5509C54.8847 55.7274 55.7275 55.9446 55.0988 57.5465C54.5637 58.9041 55.0185 60.3702 54.9249 61.5106C55.2727 60.153 54.2427 58.3067 55.6338 56.8134C55.743 56.6872 55.8796 56.5884 56.0328 56.5248C56.186 56.4612 56.3516 56.4345 56.5167 56.4469C56.8308 56.5019 57.1152 56.6688 57.3188 56.9177C57.5223 57.1666 57.6316 57.481 57.627 57.8044C57.627 60.0308 57.627 62.2436 57.627 64.47C57.6257 64.5987 57.5869 64.724 57.5154 64.8303C57.444 64.9366 57.3432 65.0191 57.2257 65.0673C55.4599 64.3207 56.704 62.7323 56.3027 61.7821C56.4231 62.6645 56.0351 63.7912 56.6103 64.8094C56.9849 65.2302 57.0518 65.6239 56.3963 65.7868C55.9148 65.9226 55.4466 65.8004 55.072 66.1126Z" fill="black"/>
<path d="M55.8478 57.1257C54.684 58.3068 55.1656 59.8408 55.0853 61.1983C55.1043 62.1679 54.9963 63.1356 54.7643 64.0763C54.7643 61.9586 54.6707 59.8272 54.7643 57.723C54.8446 56.3655 54.363 55.931 53.1591 55.931H45.4809C45.1197 53.2159 45.1197 53.2159 47.7281 53.2159H54.256L54.684 53.7318L53.8814 54.0033C52.4234 55.1708 50.7513 54.302 49.4537 54.6006C50.5908 54.94 52.2093 53.9354 53.4668 55.1844C54.2292 54.8857 55.0051 55.6052 55.7809 55.1844C56.5702 55.8224 56.1822 56.4741 55.8478 57.1257Z" fill="black"/>
<path d="M57.8543 53.0666L64.5426 53.1752C67.218 53.1752 67.218 53.1752 66.9237 55.8903C64.1114 56.1141 61.2892 56.1821 58.4696 56.0939C57.9529 56.1281 57.4346 56.1281 56.9179 56.0939C55.9548 55.2794 56.8376 54.4649 56.9179 53.6639C56.9991 53.4822 57.1312 53.3287 57.2976 53.2225C57.4641 53.1163 57.6577 53.0621 57.8543 53.0666Z" fill="black"/>
<path d="M6.44758 37.9163V37.5362C6.60291 37.4251 6.77977 37.3489 6.9664 37.3126C7.15302 37.2764 7.34512 37.2808 7.5299 37.3258C7.71468 37.3707 7.8879 37.4551 8.03803 37.5733C8.18816 37.6916 8.31175 37.8409 8.40058 38.0113C8.40058 39.6268 8.32032 41.2559 8.40058 42.8578C8.48084 44.4597 7.83876 44.7991 6.44758 44.5276C6.13987 42.3349 6.13987 40.109 6.44758 37.9163V37.9163Z" fill="black"/>
<path d="M8.7617 37.1561L9.14963 35.9886C10.917 35.644 12.7329 35.644 14.5003 35.9886C14.7812 37.3462 14.313 37.9435 12.962 37.9028C11.6109 37.862 10.193 37.9028 8.80183 37.9028C8.74138 37.8633 8.69101 37.8098 8.65488 37.7467C8.61874 37.6836 8.59785 37.6127 8.59394 37.5398C8.59002 37.467 8.60318 37.3942 8.63235 37.3275C8.66151 37.2608 8.70584 37.2021 8.7617 37.1561V37.1561Z" fill="black"/>
<path d="M57.8543 53.0666L57.3861 53.9897C56.5701 54.0712 56.5166 53.501 56.4096 52.9037C56.2 50.7338 56.1509 48.5511 56.2625 46.3738C56.2625 45.6 56.8511 45.315 57.3861 45.0163H57.774L57.8543 53.0666Z" fill="black"/>
<path d="M56.9983 55.9446H57.7741C58.055 56.0532 58.055 56.1618 57.7741 56.284C57.7741 58.7275 57.841 61.1711 57.841 63.6147C57.841 66.3298 57.841 66.3298 55.072 66.1126C55.2325 65.2438 56.4097 65.8411 56.6237 64.9587C58.1219 63.3432 57.132 61.3748 57.3594 59.5285C57.5066 58.4425 57.52 57.2614 56.2358 56.6776C55.995 56.1482 55.781 55.4966 56.3562 55.1708C56.9314 54.845 56.7307 55.7409 56.9983 55.9446Z" fill="black"/>
<path d="M57.7739 56.284C57.7599 56.1713 57.7599 56.0573 57.7739 55.9446H66.8835C63.9005 56.5826 60.8104 55.9446 57.7739 56.284Z" fill="black"/>
<path d="M65.1179 44.8941C65.2651 44.3375 65.1179 43.3329 66.2014 44.161C67.2849 44.9891 66.9238 43.0207 67.7531 43.4144C67.9805 45.953 66.2416 44.867 65.1179 44.8941Z" fill="black"/>
<path d="M6.44769 37.9163V44.5276C5.69859 42.3691 6.3273 40.1291 6.04639 37.9299L6.44769 37.9163Z" fill="black"/>
<path d="M67.753 29.7167C67.1511 29.9475 66.6562 29.3638 65.9873 29.5403C65.3185 29.7167 65.3987 29.0515 65.4924 28.59C66.3485 28.7393 67.7664 27.7483 67.753 29.7167Z" fill="black"/>
<path d="M8.7617 37.1561V37.8756L8.40053 38.0113L6.44753 37.5905C6.24688 36.7352 6.56792 36.3008 7.41065 36.6266C7.85208 36.7488 8.22663 37.1289 8.7617 37.1561Z" fill="black"/>
<path d="M14.4603 35.975H9.10959L8.33374 35.5542C10.3938 35.8664 12.4805 35.2148 14.4603 35.975Z" fill="black"/>
<path d="M56.9983 55.9446C55.8613 55.3065 56.4097 56.379 56.2358 56.7184L55.8479 57.1257V55.1708C56.3696 52.4557 55.567 49.8763 55.8479 47.2291C55.9281 46.3874 55.8479 45.5458 55.8479 44.6226L57.3862 44.9756C56.7841 46.3996 56.4737 47.9331 56.4737 49.4826C56.4737 51.0322 56.7841 52.5657 57.3862 53.9897L56.9983 55.9446Z" fill="black"/>
<path d="M53.5069 55.1708C51.5272 55.1708 49.4939 55.1708 47.5677 55.2794C46.9389 55.2794 46.23 55.198 46.23 54.5192C46.23 53.8404 47.0058 53.8133 47.5677 53.8268L53.8815 53.9897L53.5069 55.1708Z" fill="black"/>
<path d="M56.6906 65.1623C55.2325 63.031 56.1287 60.9404 56.1154 58.9448C56.8644 60.9268 56.4631 62.9631 56.6906 65.1623Z" fill="black"/>
<path d="M58.4697 54.5192C58.6162 54.2341 58.8526 54.007 59.1411 53.8741C59.4296 53.7412 59.7537 53.7102 60.0616 53.7861C61.3992 53.8811 62.7369 53.8947 64.0746 54.0033C64.7167 54.0033 65.8269 53.6911 65.7868 54.6142C65.7467 55.5373 64.6364 55.1165 63.9809 55.1437C62.1211 55.3261 60.2442 55.1134 58.4697 54.5192V54.5192Z" fill="black"/>
</g>
<defs>
<clipPath id="clip0_9_82">
<rect width="74" height="74" fill="white"/>
</clipPath>
</defs>
</svg>
