<svg width="42" height="65" viewBox="0 0 42 65" fill="none" xmlns="http://www.w3.org/2000/svg">
<g clip-path="url(#clip0_9_58)">
<path d="M13.5823 0H14.9634C15.879 0.17273 16.7153 0.632071 17.3501 1.31102L17.471 1.45669L18.1584 2.88804V4.32573L17.7193 5.63042L17.331 5.33908C17.1646 5.15652 16.9882 4.98315 16.8028 4.81974C16.7231 4.7699 16.6644 4.69298 16.6375 4.60328C16.6105 4.51358 16.6173 4.4172 16.6564 4.33207C16.7994 3.93381 16.8232 3.5028 16.725 3.09134C16.6267 2.67987 16.4105 2.30563 16.1027 2.01403C15.8241 1.69235 15.4557 1.46037 15.0443 1.34759C14.6329 1.23481 14.1971 1.24633 13.7923 1.38069L12.9713 1.77969C12.591 2.03556 12.3137 2.41689 12.1884 2.85638C12.0834 3.14429 12.0374 3.45022 12.0532 3.75611C12.069 4.062 12.1462 4.36165 12.2803 4.63735C12.4143 4.91306 12.6026 5.15923 12.8339 5.36134C13.0651 5.56345 13.3348 5.7174 13.6268 5.81409C14.0979 6.03171 14.6339 6.06561 15.1289 5.90909C15.2243 5.87742 15.3771 5.83942 15.428 5.90909C15.7908 6.21309 16.1345 6.54243 16.5036 6.88444L16.0008 7.20111L15.8608 7.25811L14.4224 7.53678L12.9776 7.27711C12.2537 6.93926 11.6324 6.41708 11.1765 5.76342L10.6482 4.32573L10.7118 2.88171L11.4565 1.45036L11.5774 1.29835C12.0611 0.956348 12.5385 0.595342 13.0286 0.266004C13.2054 0.162141 13.3906 0.0731636 13.5823 0V0Z" fill="black"/>
<path d="M23.1674 64.7277L21.7226 64.3857L20.2651 63.8917L17.3629 62.3716L16.86 62.0233L15.9117 61.276L15.2116 60.6426L14.4479 59.8636L13.8878 59.2303L12.9967 58.0142L12.8504 57.7926L11.3992 54.9045L10.9219 53.4542C10.8009 52.8778 10.6609 52.3015 10.5655 51.7251C10.2437 50.0969 10.1559 48.4315 10.3045 46.7787C10.4445 45.6261 10.7309 44.4924 10.941 43.3524L11.3929 42.0477C11.4501 41.959 11.5011 41.8703 11.552 41.7817C12.0039 40.9583 12.4239 40.1223 12.9204 39.3306C13.3086 38.6973 13.7987 38.1653 14.2442 37.5826L14.4415 37.3609L15.759 36.1006L15.9117 35.9739L16.2681 35.7586L17.5411 37.5509C18.0184 38.2539 18.4894 38.9696 18.9795 39.66C19.0162 39.6926 19.0456 39.7327 19.0657 39.7774C19.0858 39.8222 19.0962 39.8706 19.0962 39.9196C19.0962 39.9687 19.0858 40.0171 19.0657 40.0619C19.0456 40.1066 19.0162 40.1466 18.9795 40.1793C18.5021 40.7303 18.0566 41.313 17.6047 41.883C16.9612 42.7567 16.4725 43.7334 16.1599 44.771C15.9626 45.6894 15.6826 46.6014 15.568 47.5324C15.387 49.0244 15.5369 50.5377 16.0072 51.9658L16.5227 53.4035C16.5422 53.4723 16.5656 53.54 16.5927 53.6062C17.195 54.979 18.0596 56.2223 19.1386 57.2669C19.8574 57.9974 20.7053 58.59 21.6399 59.0149C22.5684 59.5195 23.5864 59.8399 24.6376 59.9586L26.0951 60.0726L27.5526 59.9839C28.5677 59.8627 29.5541 59.5669 30.4676 59.1099C31.5214 58.6265 32.4771 57.9546 33.2871 57.1276C34.39 56.091 35.258 54.8322 35.8329 53.4352C36.2776 52.5267 36.5659 51.5505 36.6858 50.5471C36.9084 49.4297 36.9214 48.2809 36.724 47.1587C36.5903 46.3544 36.3485 45.5627 36.1512 44.7647L35.5592 43.3207L34.821 42.054L34.7382 41.9083C34.3563 41.4017 33.9999 40.8696 33.5799 40.3946C32.7077 39.3905 31.6202 38.5941 30.3976 38.0639C29.4905 37.5943 28.5006 37.304 27.4826 37.2089L26.0251 37.1203C25.0393 37.1015 24.0582 37.2603 23.1292 37.5889L21.6017 38.2223L21.0416 38.4756L19.4377 36.1006L18.8013 35.2202L18.4194 34.6566L18.2666 34.3335L18.9031 33.9472L21.7162 32.7819L23.161 32.4209L24.6185 32.2055C26.072 32.1084 27.5319 32.17 28.9719 32.3892L30.4167 32.7185L31.8741 33.2062L32.0205 33.2695L33.2935 33.8649L34.5345 34.5806L36.2021 35.8092L37.9396 37.5446L39.8999 40.4326L40.4855 41.5853L40.6064 41.883L41.1474 43.3207L41.542 44.7774C41.682 45.7337 41.8157 46.6774 41.9557 47.6528V49.0968V49.2424V49.8188L41.3192 53.4288L40.8355 54.8602L39.4098 57.6659C38.7851 58.5453 38.1137 59.3909 37.3986 60.1993C36.5967 61.0226 35.6547 61.7066 34.7764 62.4476L31.8551 63.9677L30.4167 64.449C28.8965 64.8677 27.3216 65.0556 25.745 65.0064C24.8858 64.9367 24.0266 64.8163 23.1674 64.7277Z" fill="black"/>
<path d="M17.1401 10.1335L17.9802 8.23346C18.6167 8.80347 19.1449 9.29114 19.6732 9.79782C19.7241 9.84848 19.6732 10.0005 19.6732 10.1082L19.2531 11.5522L19.425 13.0025C19.4396 13.1222 19.4763 13.2381 19.5332 13.3445C19.6105 13.4207 19.6685 13.514 19.7025 13.6169C19.7365 13.7197 19.7455 13.8291 19.7287 13.9361C19.7119 14.0431 19.6699 14.1445 19.606 14.2322C19.5421 14.3198 19.4583 14.3911 19.3613 14.4402L18.7949 15.0039L18.1266 15.6056L17.8847 15.2509C17.4556 14.5565 17.1499 13.7938 16.9809 12.9962L16.8918 11.5522L17.1401 10.1335Z" fill="black"/>
<path d="M24.6119 5.78243L24.8283 5.8521L26.0503 6.39044C26.9849 6.96806 27.775 7.74997 28.3607 8.67681L28.8953 9.82316L28.978 10.1082L29.2071 11.5522L29.118 12.9962C28.888 14.0517 28.4201 15.0413 27.7496 15.8906L27.5142 16.1693L26.0567 17.3156L24.6119 17.9173L23.1608 18.1453L21.7096 17.9806L20.3667 17.4676L20.2776 17.4169L20.1185 17.3346L19.412 16.8153L20.2712 15.8843C20.3391 15.8344 20.4029 15.7793 20.4622 15.7196C20.7931 15.2762 21.1623 14.9722 21.7351 15.3902L23.1862 15.6689L24.6374 15.3776C25.1727 15.1987 25.6468 14.874 26.0057 14.4402L26.1712 14.2312C26.7349 13.597 27.0452 12.7789 27.0432 11.9322C27.0622 11.4183 26.9761 10.906 26.7903 10.4262C26.6045 9.94641 26.3228 9.50913 25.9622 9.14083C25.6016 8.77253 25.1697 8.48089 24.6925 8.28356C24.2154 8.08623 23.7029 7.98731 23.1862 7.9928C22.5292 7.95425 21.8767 8.12267 21.3214 8.47414C21.2692 8.51936 21.2078 8.55277 21.1414 8.57204C21.075 8.59131 21.0052 8.59598 20.9368 8.58574C20.8684 8.5755 20.803 8.55059 20.7453 8.51273C20.6875 8.47487 20.6387 8.42496 20.6022 8.36647C20.2076 7.96113 19.7748 7.59379 19.3611 7.20745C19.1956 7.04279 19.2656 6.94145 19.4311 6.81478C20.1185 6.31227 20.89 5.93488 21.7096 5.7001L23.1608 5.5481L24.6119 5.78243Z" fill="black"/>
<path d="M14.4668 33.2125L14.9506 33.9345L12.9966 34.7642L11.5519 35.0999L10.0944 35.2076L8.6496 35.0936L7.19847 34.7515L6.6893 34.5869L5.72825 34.2005L4.29621 33.3075L4.15619 33.2125L2.84508 32.0598L2.54595 31.7685C1.82749 30.8853 1.22837 29.9122 0.763861 28.8741L0.29288 27.4428L0.0510254 25.9987V25.8467V24.5801L0.21014 23.136L0.579287 21.692L1.16483 20.3367C1.68673 19.602 2.16407 18.8356 2.73052 18.139C3.56973 17.1656 4.58698 16.3597 5.72825 15.7639L7.20484 15.2002C8.61345 14.7824 10.0953 14.668 11.5519 14.8646L12.9966 15.1939L14.4478 15.7703L14.7214 15.9096L15.9116 16.6316C16.0708 16.7501 16.2218 16.8791 16.3635 17.0179C16.4144 17.0686 16.4144 17.1826 16.4399 17.2649L14.4796 19.222L13.7604 19.8553L13.0348 19.469L12.9457 19.412L11.5773 18.88L10.1198 18.6836L8.66869 18.823L7.21757 19.3296L5.89373 20.2163L5.72825 20.3557L4.65263 21.6603C4.07384 22.5186 3.7496 23.5217 3.71704 24.5547L3.81887 25.9987C3.96612 26.6135 4.1641 27.2151 4.41078 27.7974C4.81671 28.6351 5.41262 29.3674 6.15153 29.9367C6.89043 30.506 7.75213 30.8968 8.66869 31.0782L10.1262 31.2302L11.5519 31.0338L12.6147 30.7172L13.003 31.1922L13.4294 31.7812L14.3777 33.0479L14.4668 33.2125Z" fill="black"/>
<path d="M17.3564 32.0598L16.949 32.4018L14.6387 29.3365L15.7525 27.4364L15.9816 26.8031C16.2789 25.9362 16.3699 25.0124 16.2473 24.1046C16.1247 23.1968 15.7919 22.3297 15.2751 21.5717L14.9696 21.065L15.6952 20.2987L15.988 20.0073L17.1527 18.861L17.4455 18.5633L17.7 18.386L18.0628 18.785L18.7375 19.7856L18.9666 20.2163L19.6031 21.673L19.9722 23.117C20.2302 24.5459 20.2043 26.0112 19.8958 27.4301L19.463 28.7854C19.0004 29.8568 18.3899 30.8587 17.6491 31.7622L17.3564 32.0598Z" fill="black"/>
</g>
<defs>
<clipPath id="clip0_9_58">
<rect width="42" height="65" fill="white"/>
</clipPath>
</defs>
</svg>
