<?xml version="1.0" encoding="UTF-8"?>
<svg xmlns="http://www.w3.org/2000/svg" xmlns:xlink="http://www.w3.org/1999/xlink" width="139px" height="53px" viewBox="0 0 139 53" version="1.1">
<g id="surface1">
<path style=" stroke:none;fill-rule:nonzero;fill:rgb(25.490196%,65.882353%,98.431373%);fill-opacity:1;" d="M 45.699219 0.199219 L 52.898438 0.199219 L 52.898438 7.398438 L 45.699219 7.398438 Z M 45.699219 0.199219 "/>
<path style=" stroke:none;fill-rule:nonzero;fill:rgb(25.490196%,65.882353%,98.431373%);fill-opacity:1;" d="M 69.398438 7.398438 L 76.601562 7.398438 L 76.601562 14.699219 L 69.398438 14.699219 Z M 69.398438 7.398438 "/>
<path style=" stroke:none;fill-rule:nonzero;fill:rgb(22.745098%,83.921569%,98.823529%);fill-opacity:1;" d="M 60.101562 14.601562 L 67.300781 14.601562 L 67.300781 21.800781 L 60.101562 21.800781 Z M 60.101562 14.601562 "/>
<path style=" stroke:none;fill-rule:nonzero;fill:rgb(0%,90.588235%,77.254902%);fill-opacity:1;" d="M 60.101562 0.199219 L 67.300781 0.199219 L 67.300781 7.398438 L 60.101562 7.398438 Z M 60.101562 0.199219 "/>
<path style=" stroke:none;fill-rule:nonzero;fill:rgb(22.352941%,45.882353%,95.686275%);fill-opacity:1;" d="M 52.898438 7.398438 L 60.101562 7.398438 L 60.101562 14.601562 L 52.898438 14.601562 Z M 52.898438 7.398438 "/>
<path style=" stroke:none;fill-rule:nonzero;fill:rgb(0%,90.588235%,77.254902%);fill-opacity:1;" d="M 45.699219 14.601562 L 52.898438 14.601562 L 52.898438 21.800781 L 45.699219 21.800781 Z M 45.699219 14.601562 "/>
<path style=" stroke:none;fill-rule:nonzero;fill:rgb(22.352941%,45.882353%,95.686275%);fill-opacity:1;" d="M 13.5 19.101562 L 2.898438 14.800781 C 7.300781 6.101562 16.300781 0.601562 26 0.601562 L 26 12 C 20.898438 12 16.101562 14.699219 13.5 19.101562 Z M 13.5 19.101562 "/>
<path style=" stroke:none;fill-rule:nonzero;fill:rgb(22.352941%,45.882353%,95.686275%);fill-opacity:1;" d="M 25.800781 41.398438 L 25.800781 52.800781 C 17.199219 52.699219 9.101562 48.398438 4.398438 41.101562 C -0.398438 34 -1.300781 24.898438 1.898438 16.800781 L 12.398438 21 C 10.5 25.5 11 30.601562 13.699219 34.699219 C 16.398438 38.800781 20.898438 41.398438 25.800781 41.398438 Z M 25.800781 41.398438 "/>
<path style=" stroke:none;fill-rule:nonzero;fill:rgb(22.352941%,45.882353%,95.686275%);fill-opacity:1;" d="M 52.101562 26.699219 C 52.101562 40.300781 41.601562 51.699219 28 52.699219 L 28 41.300781 C 35.300781 40.300781 40.699219 34.101562 40.699219 26.699219 Z M 52.101562 26.699219 "/>
<path style=" stroke:none;fill-rule:nonzero;fill:rgb(22.352941%,45.882353%,95.686275%);fill-opacity:1;" d="M 29.398438 26.699219 L 29.398438 15.398438 L 40.699219 15.398438 L 40.699219 26.800781 L 29.398438 26.800781 Z M 29.398438 26.699219 "/>
<path style=" stroke:none;fill-rule:nonzero;fill:rgb(8.627451%,17.254902%,32.941176%);fill-opacity:1;" d="M 54 41.199219 C 54 36.300781 57.601562 33.199219 62.101562 33.199219 C 64.601562 33.101562 66.898438 34.300781 68.300781 36.398438 L 66.101562 37.699219 C 65.199219 36.398438 63.699219 35.699219 62.101562 35.601562 C 59.101562 35.601562 56.800781 37.898438 56.800781 41.199219 C 56.800781 44.398438 59.101562 46.800781 62.101562 46.800781 C 63.398438 46.800781 64.699219 46.300781 65.699219 45.398438 L 65.699219 43 L 61.101562 43 L 61.101562 40.601562 L 68.398438 40.601562 L 68.398438 46.398438 C 66.800781 48.199219 64.5 49.199219 62.101562 49.199219 C 57.601562 49.199219 54 46 54 41.199219 Z M 54 41.199219 "/>
<path style=" stroke:none;fill-rule:nonzero;fill:rgb(8.627451%,17.254902%,32.941176%);fill-opacity:1;" d="M 82.898438 48.898438 L 79.898438 37.5 L 76.898438 48.898438 L 74 48.898438 L 69.601562 33.5 L 72.601562 33.5 L 75.601562 45.398438 L 78.800781 33.5 L 80.898438 33.5 L 84.101562 45.398438 L 87.101562 33.5 L 90.101562 33.5 L 85.699219 48.898438 Z M 82.898438 48.898438 "/>
<path style=" stroke:none;fill-rule:nonzero;fill:rgb(8.627451%,17.254902%,32.941176%);fill-opacity:1;" d="M 90.800781 41.199219 C 90.800781 36.398438 94.300781 33.199219 98.898438 33.199219 C 101.398438 33.101562 103.800781 34.5 105.101562 36.601562 L 102.800781 37.800781 C 102 36.398438 100.5 35.601562 98.898438 35.601562 C 95.898438 35.601562 93.601562 37.898438 93.601562 41.199219 C 93.601562 44.398438 95.898438 46.800781 98.898438 46.800781 C 100.5 46.800781 102 45.898438 102.800781 44.601562 L 105.101562 45.800781 C 103.898438 47.699219 102 49.300781 98.898438 49.300781 C 94.300781 49.101562 90.800781 45.898438 90.800781 41.199219 Z M 90.800781 41.199219 "/>
</g>
</svg>
